<svg width="27" height="43" viewBox="0 0 27 43" fill="none" xmlns="http://www.w3.org/2000/svg">
<path d="M13.5 0C19.0856 0 23.625 5.42681 23.625 12.1389C23.625 20.1669 15.7434 31.5776 13.8879 34.1528C13.6935 34.4225 13.3065 34.4225 13.1121 34.1528C11.2566 31.5776 3.375 20.1669 3.375 12.1389C3.375 5.42681 7.91437 0 13.5 0ZM13.5 8.16062C12.6049 8.16062 11.7465 8.5905 11.1135 9.35571C10.4806 10.1209 10.125 11.1588 10.125 12.2409C10.125 13.3231 10.4806 14.3609 11.1135 15.1261C11.7465 15.8913 12.6049 16.3212 13.5 16.3212C14.3951 16.3212 15.2535 15.8913 15.8865 15.1261C16.5194 14.3609 16.875 13.3231 16.875 12.2409C16.875 11.1588 16.5194 10.1209 15.8865 9.35571C15.2535 8.5905 14.3951 8.16062 13.5 8.16062ZM27 34.6826C27 39.1914 20.9587 42.8432 13.5 42.8432C6.04125 42.8432 0 39.1914 0 34.6826C0 32.1658 1.88285 29.9101 4.8368 28.4153C5.06765 28.2985 5.34778 28.3866 5.47787 28.6103L6.06109 29.6128C6.20589 29.8617 6.10998 30.18 5.86048 30.3238C4.31423 31.2151 3.375 32.3795 3.375 33.6625C3.375 36.478 7.91437 38.7629 13.5 38.7629C19.0856 38.7629 23.625 36.478 23.625 33.6625C23.625 32.3795 22.6858 31.2151 21.1395 30.3238C20.89 30.18 20.7941 29.8617 20.9389 29.6128L21.5221 28.6103C21.6522 28.3866 21.9324 28.2985 22.1632 28.4153C25.1171 29.9101 27 32.1658 27 34.6826Z" fill="url(#paint0_linear_60_1776)"/>
<defs>
<linearGradient id="paint0_linear_60_1776" x1="13.5" y1="0" x2="13.5" y2="42.8432" gradientUnits="userSpaceOnUse">
<stop stop-color="#3D8CD9"/>
<stop offset="1" stop-color="#00478D"/>
</linearGradient>
</defs>
</svg>
