<svg width="842" height="35" viewBox="0 0 842 35" fill="none" xmlns="http://www.w3.org/2000/svg">
<path d="M-20 32H29.2C29.6418 32 30 32.3582 30 32.8V34.2C30 34.6418 29.6418 35 29.2 35H-20V32Z" fill="#F0BE07"/>
<path d="M-20 0H28C29.1046 0 30 0.895431 30 2V28C30 29.1046 29.1046 30 28 30H-20V0Z" fill="#3D8CD9"/>
<path d="M215 2C215 0.89543 215.895 0 217 0H850V30H217C215.895 30 215 29.1046 215 28V2Z" fill="url(#paint0_linear_6746_4156)"/>
<path d="M215 32.8C215 32.3582 215.358 32 215.8 32H850V35H215.8C215.358 35 215 34.6418 215 34.2V32.8Z" fill="url(#paint1_linear_6746_4156)"/>
<mask id="path-5-outside-1_6746_4156" maskUnits="userSpaceOnUse" x="46" y="10" width="152" height="21" fill="black">
<rect fill="white" x="46" y="10" width="152" height="21"/>
<path d="M47.6815 18.888C48.0895 17.712 48.8335 16.818 49.9135 16.206C50.7175 15.75 51.5875 15.522 52.5235 15.522C53.4595 15.522 54.3175 15.774 55.0975 16.278C56.0815 16.878 56.7775 17.748 57.1855 18.888L56.9875 19.392C56.4835 19.62 55.9735 19.992 55.4575 20.508C54.9535 21.06 54.6235 21.612 54.4675 22.164H57.3655V24H53.4055C53.0695 24 52.7635 23.844 52.4875 23.532H52.3975C52.1455 23.808 51.7915 23.976 51.3355 24.036C51.2635 24.048 51.1975 24.06 51.1375 24.072C50.4055 24.192 49.8955 24.48 49.6075 24.936C49.3795 25.284 49.2655 25.752 49.2655 26.34C49.2655 28.092 50.4235 28.968 52.7395 28.968C53.4115 28.968 54.1135 28.866 54.8455 28.662V29.418L53.8915 30.588C53.4955 30.708 52.9435 30.78 52.2355 30.804C50.8075 30.804 49.6315 30.462 48.7075 29.778C47.6155 28.986 47.0695 27.816 47.0695 26.268C47.0695 25.284 47.3035 24.486 47.7715 23.874C48.3475 23.07 49.2415 22.554 50.4535 22.326C50.3335 21.798 50.0395 21.258 49.5715 20.706C49.0795 20.118 48.5155 19.68 47.8795 19.392L47.6815 18.888ZM54.8815 18.744C54.5935 18.24 54.2035 17.868 53.7115 17.628C53.3395 17.448 52.9255 17.358 52.4695 17.358C51.9895 17.358 51.5335 17.46 51.1015 17.664C50.6215 17.904 50.2495 18.264 49.9855 18.744C50.3935 18.924 50.8255 19.284 51.2815 19.824C51.8095 20.388 52.1815 21 52.3975 21.66H52.4695C52.6975 20.988 53.0875 20.346 53.6395 19.734C54.0835 19.242 54.4975 18.912 54.8815 18.744ZM60.5699 22.164V24H57.2399V22.164H60.5699ZM65.8572 15.72V21.894V22.164H66.7752V24H66.1452L65.4792 23.262H65.4432C65.0352 23.754 64.5252 24 63.9132 24H60.4392V22.164H63.1572C63.3252 22.164 63.4452 22.116 63.5172 22.02C63.6252 21.924 63.6792 21.804 63.6792 21.66V15.72H65.8572ZM61.9512 25.314C62.2752 25.314 62.5512 25.428 62.7792 25.656C63.0072 25.884 63.1212 26.16 63.1212 26.484C63.1212 26.808 63.0072 27.084 62.7792 27.312C62.5512 27.54 62.2752 27.654 61.9512 27.654C61.6272 27.654 61.3512 27.54 61.1232 27.312C60.8952 27.084 60.7812 26.808 60.7812 26.484C60.7812 26.16 60.8952 25.884 61.1232 25.656C61.3512 25.428 61.6272 25.314 61.9512 25.314ZM64.6872 25.314C65.0112 25.314 65.2872 25.428 65.5152 25.656C65.7432 25.884 65.8572 26.16 65.8572 26.484C65.8572 26.808 65.7432 27.084 65.5152 27.312C65.2872 27.54 65.0112 27.654 64.6872 27.654C64.3752 27.654 64.1052 27.54 63.8772 27.312C63.6492 27.084 63.5352 26.808 63.5352 26.484C63.5352 26.16 63.6492 25.884 63.8772 25.656C64.1052 25.428 64.3752 25.314 64.6872 25.314ZM69.9742 22.164V24H66.6442V22.164H69.9742ZM75.2615 15.72V21.894V22.164H76.1795V24H75.5495L74.8835 23.262H74.8475C74.4395 23.754 73.9295 24 73.3175 24H69.8435V22.164H72.5615C72.7295 22.164 72.8495 22.116 72.9215 22.02C73.0295 21.924 73.0835 21.804 73.0835 21.66V15.72H75.2615ZM74.1095 25.314C74.4215 25.314 74.6915 25.428 74.9195 25.656C75.1475 25.884 75.2615 26.16 75.2615 26.484C75.2615 26.808 75.1475 27.084 74.9195 27.312C74.6915 27.54 74.4215 27.654 74.1095 27.654C73.7855 27.654 73.5095 27.54 73.2815 27.312C73.0535 27.084 72.9395 26.808 72.9395 26.484C72.9395 26.16 73.0535 25.884 73.2815 25.656C73.5095 25.428 73.7855 25.314 74.1095 25.314ZM81.4665 11.112V22.02C81.4665 22.524 81.3045 22.956 80.9805 23.316C80.6085 23.772 80.1225 24 79.5225 24H76.0485V22.164H78.8205C78.9525 22.164 79.0665 22.116 79.1625 22.02C79.2465 21.936 79.2885 21.834 79.2885 21.714V11.112H81.4665ZM86.1499 11.112V23.55L85.0339 24.45H83.9539V11.112H86.1499ZM98.1624 15.234C98.4864 15.234 98.7624 15.348 98.9904 15.576C99.2184 15.804 99.3324 16.08 99.3324 16.404C99.3324 16.728 99.2184 17.004 98.9904 17.232C98.7624 17.46 98.4864 17.574 98.1624 17.574C97.8504 17.574 97.5804 17.46 97.3524 17.232C97.1244 17.004 97.0104 16.728 97.0104 16.404C97.0104 16.08 97.1244 15.804 97.3524 15.576C97.5804 15.348 97.8504 15.234 98.1624 15.234ZM100.916 15.234C101.228 15.234 101.498 15.348 101.726 15.576C101.954 15.804 102.068 16.08 102.068 16.404C102.068 16.728 101.954 17.004 101.726 17.232C101.498 17.46 101.228 17.574 100.916 17.574C100.592 17.574 100.316 17.46 100.088 17.232C99.8604 17.004 99.7464 16.728 99.7464 16.404C99.7464 16.08 99.8604 15.804 100.088 15.576C100.316 15.348 100.592 15.234 100.916 15.234ZM107.108 15.72V22.02C107.108 22.524 106.952 22.95 106.64 23.298C106.256 23.766 105.764 24 105.164 24H95.0844C94.3044 24 93.6324 23.748 93.0684 23.244C92.3124 22.608 91.9344 21.78 91.9344 20.76V17.916L93.0504 17.016H94.1304V20.76C94.1304 21.18 94.2744 21.522 94.5624 21.786C94.8384 22.038 95.1564 22.164 95.5164 22.164H104.462C104.762 22.164 104.912 22.014 104.912 21.714V15.72H107.108ZM111.796 11.112V21.714C111.796 21.834 111.832 21.93 111.904 22.002C111.976 22.11 112.09 22.164 112.246 22.164H112.714V24H111.544C111.052 24 110.62 23.826 110.248 23.478C109.816 23.082 109.6 22.596 109.6 22.02V11.112H111.796ZM115.923 22.164V24H112.593V22.164H115.923ZM124.361 10.86V12.894L120.599 15.18C122.147 15.744 123.389 16.668 124.325 17.952C125.165 19.128 125.585 20.412 125.585 21.804C125.585 22.452 125.399 22.98 125.027 23.388C124.667 23.796 124.199 24 123.623 24H115.775V22.164H122.921C123.233 22.164 123.389 22.008 123.389 21.696C123.293 20.568 122.879 19.584 122.147 18.744C121.163 17.58 119.813 16.908 118.097 16.728C118.013 16.728 117.971 16.68 117.971 16.584V14.532L124.361 10.86ZM132.043 15.72V22.164H132.961V24H132.025C131.929 25.44 131.359 26.544 130.315 27.312C129.451 27.948 128.389 28.266 127.129 28.266C126.913 28.266 126.679 28.26 126.427 28.248L125.545 27.15V26.376C125.929 26.436 126.301 26.466 126.661 26.466C128.785 26.466 129.847 25.434 129.847 23.37V15.72H132.043ZM136.173 22.164V24H132.843V22.164H136.173ZM138.437 16.026C139.625 15.678 140.663 15.504 141.551 15.504C143.003 15.504 144.173 15.96 145.061 16.872C145.865 17.7 146.267 18.732 146.267 19.968V22.02C146.267 22.512 146.099 22.956 145.763 23.352C145.367 23.784 144.887 24 144.323 24H136.043V22.164H143.621C143.921 22.164 144.071 22.014 144.071 21.714V20.094C144.071 19.254 143.795 18.594 143.243 18.114C142.703 17.634 141.953 17.394 140.993 17.394C140.441 17.394 139.589 17.52 138.437 17.772V16.026ZM156.845 15.72V22.164H157.763V24H156.827C156.731 25.44 156.161 26.544 155.117 27.312C154.253 27.948 153.191 28.266 151.931 28.266C151.715 28.266 151.481 28.26 151.229 28.248L150.347 27.15V26.376C150.731 26.436 151.103 26.466 151.463 26.466C153.587 26.466 154.649 25.434 154.649 23.37V15.72H156.845ZM160.976 22.164V24H157.646V22.164H160.976ZM166.263 15.72V22.02C166.263 22.488 166.107 22.92 165.795 23.316C165.399 23.772 164.907 24 164.319 24H160.845V22.164H163.617C163.749 22.164 163.863 22.116 163.959 22.02C164.043 21.936 164.085 21.834 164.085 21.714V15.72H166.263ZM162.321 25.314C162.645 25.314 162.921 25.428 163.149 25.656C163.377 25.884 163.491 26.16 163.491 26.484C163.491 26.808 163.377 27.084 163.149 27.312C162.921 27.54 162.645 27.654 162.321 27.654C162.009 27.654 161.739 27.54 161.511 27.312C161.283 27.084 161.169 26.808 161.169 26.484C161.169 26.16 161.283 25.884 161.511 25.656C161.739 25.428 162.009 25.314 162.321 25.314ZM165.075 25.314C165.399 25.314 165.669 25.428 165.885 25.656C166.113 25.884 166.227 26.16 166.227 26.484C166.227 26.808 166.113 27.084 165.885 27.312C165.669 27.54 165.399 27.654 165.075 27.654C164.751 27.654 164.475 27.54 164.247 27.312C164.019 27.084 163.905 26.808 163.905 26.484C163.905 26.16 164.019 25.884 164.247 25.656C164.475 25.428 164.751 25.314 165.075 25.314ZM173.808 15.72V22.164H174.726V24H173.79C173.694 25.44 173.124 26.544 172.08 27.312C171.216 27.948 170.154 28.266 168.894 28.266C168.678 28.266 168.444 28.26 168.192 28.248L167.31 27.15V26.376C167.694 26.436 168.066 26.466 168.426 26.466C170.55 26.466 171.612 25.434 171.612 23.37V15.72H173.808ZM177.939 22.164V24H174.609V22.164H177.939ZM183.226 11.76C183.55 11.76 183.826 11.874 184.054 12.102C184.282 12.33 184.396 12.606 184.396 12.93C184.396 13.242 184.282 13.512 184.054 13.74C183.826 13.968 183.55 14.082 183.226 14.082C182.914 14.082 182.644 13.968 182.416 13.74C182.188 13.512 182.074 13.242 182.074 12.93C182.074 12.606 182.188 12.33 182.416 12.102C182.644 11.874 182.914 11.76 183.226 11.76ZM185.962 11.76C186.286 11.76 186.562 11.874 186.79 12.102C187.018 12.33 187.132 12.606 187.132 12.93C187.132 13.242 187.018 13.512 186.79 13.74C186.562 13.968 186.286 14.082 185.962 14.082C185.638 14.082 185.362 13.974 185.134 13.758C184.918 13.53 184.81 13.254 184.81 12.93C184.81 12.606 184.918 12.33 185.134 12.102C185.362 11.874 185.638 11.76 185.962 11.76ZM181.39 22.164C180.85 21.444 180.58 20.574 180.58 19.554C180.58 18.63 180.814 17.832 181.282 17.16C182.038 16.056 183.13 15.504 184.558 15.504C185.638 15.504 186.544 15.84 187.276 16.512C188.128 17.292 188.554 18.306 188.554 19.554C188.554 20.538 188.284 21.408 187.744 22.164H188.986V24H186.286C185.506 24 184.942 23.922 184.594 23.766H184.504C184.168 23.922 183.604 24 182.812 24H177.808V22.164H181.39ZM184.558 22.146C185.098 22.086 185.53 21.84 185.854 21.408C186.19 20.964 186.358 20.4 186.358 19.716C186.358 18.996 186.196 18.42 185.872 17.988C185.548 17.556 185.11 17.34 184.558 17.34C184.018 17.34 183.58 17.556 183.244 17.988C182.92 18.42 182.758 18.996 182.758 19.716C182.758 20.4 182.92 20.964 183.244 21.408C183.58 21.84 184.018 22.086 184.558 22.146ZM192.195 22.164V24H188.865V22.164H192.195ZM193.792 11.76C194.116 11.76 194.392 11.874 194.62 12.102C194.848 12.33 194.962 12.606 194.962 12.93C194.962 13.242 194.848 13.512 194.62 13.74C194.392 13.968 194.116 14.082 193.792 14.082C193.468 14.082 193.192 13.968 192.964 13.74C192.736 13.512 192.622 13.242 192.622 12.93C192.622 12.606 192.736 12.33 192.964 12.102C193.192 11.874 193.468 11.76 193.792 11.76ZM196.528 11.76C196.852 11.76 197.128 11.874 197.356 12.102C197.584 12.33 197.698 12.606 197.698 12.93C197.698 13.242 197.584 13.512 197.356 13.74C197.128 13.968 196.852 14.082 196.528 14.082C196.216 14.082 195.946 13.968 195.718 13.74C195.49 13.512 195.376 13.242 195.376 12.93C195.376 12.606 195.49 12.33 195.718 12.102C195.946 11.874 196.216 11.76 196.528 11.76ZM197.464 15.72V22.02C197.464 22.488 197.308 22.92 196.996 23.316C196.6 23.772 196.108 24 195.52 24H192.046V22.164H194.818C194.95 22.164 195.064 22.116 195.16 22.02C195.244 21.936 195.286 21.834 195.286 21.714V15.72H197.464Z"/>
</mask>
<path d="M47.6815 18.888C48.0895 17.712 48.8335 16.818 49.9135 16.206C50.7175 15.75 51.5875 15.522 52.5235 15.522C53.4595 15.522 54.3175 15.774 55.0975 16.278C56.0815 16.878 56.7775 17.748 57.1855 18.888L56.9875 19.392C56.4835 19.62 55.9735 19.992 55.4575 20.508C54.9535 21.06 54.6235 21.612 54.4675 22.164H57.3655V24H53.4055C53.0695 24 52.7635 23.844 52.4875 23.532H52.3975C52.1455 23.808 51.7915 23.976 51.3355 24.036C51.2635 24.048 51.1975 24.06 51.1375 24.072C50.4055 24.192 49.8955 24.48 49.6075 24.936C49.3795 25.284 49.2655 25.752 49.2655 26.34C49.2655 28.092 50.4235 28.968 52.7395 28.968C53.4115 28.968 54.1135 28.866 54.8455 28.662V29.418L53.8915 30.588C53.4955 30.708 52.9435 30.78 52.2355 30.804C50.8075 30.804 49.6315 30.462 48.7075 29.778C47.6155 28.986 47.0695 27.816 47.0695 26.268C47.0695 25.284 47.3035 24.486 47.7715 23.874C48.3475 23.07 49.2415 22.554 50.4535 22.326C50.3335 21.798 50.0395 21.258 49.5715 20.706C49.0795 20.118 48.5155 19.68 47.8795 19.392L47.6815 18.888ZM54.8815 18.744C54.5935 18.24 54.2035 17.868 53.7115 17.628C53.3395 17.448 52.9255 17.358 52.4695 17.358C51.9895 17.358 51.5335 17.46 51.1015 17.664C50.6215 17.904 50.2495 18.264 49.9855 18.744C50.3935 18.924 50.8255 19.284 51.2815 19.824C51.8095 20.388 52.1815 21 52.3975 21.66H52.4695C52.6975 20.988 53.0875 20.346 53.6395 19.734C54.0835 19.242 54.4975 18.912 54.8815 18.744ZM60.5699 22.164V24H57.2399V22.164H60.5699ZM65.8572 15.72V21.894V22.164H66.7752V24H66.1452L65.4792 23.262H65.4432C65.0352 23.754 64.5252 24 63.9132 24H60.4392V22.164H63.1572C63.3252 22.164 63.4452 22.116 63.5172 22.02C63.6252 21.924 63.6792 21.804 63.6792 21.66V15.72H65.8572ZM61.9512 25.314C62.2752 25.314 62.5512 25.428 62.7792 25.656C63.0072 25.884 63.1212 26.16 63.1212 26.484C63.1212 26.808 63.0072 27.084 62.7792 27.312C62.5512 27.54 62.2752 27.654 61.9512 27.654C61.6272 27.654 61.3512 27.54 61.1232 27.312C60.8952 27.084 60.7812 26.808 60.7812 26.484C60.7812 26.16 60.8952 25.884 61.1232 25.656C61.3512 25.428 61.6272 25.314 61.9512 25.314ZM64.6872 25.314C65.0112 25.314 65.2872 25.428 65.5152 25.656C65.7432 25.884 65.8572 26.16 65.8572 26.484C65.8572 26.808 65.7432 27.084 65.5152 27.312C65.2872 27.54 65.0112 27.654 64.6872 27.654C64.3752 27.654 64.1052 27.54 63.8772 27.312C63.6492 27.084 63.5352 26.808 63.5352 26.484C63.5352 26.16 63.6492 25.884 63.8772 25.656C64.1052 25.428 64.3752 25.314 64.6872 25.314ZM69.9742 22.164V24H66.6442V22.164H69.9742ZM75.2615 15.72V21.894V22.164H76.1795V24H75.5495L74.8835 23.262H74.8475C74.4395 23.754 73.9295 24 73.3175 24H69.8435V22.164H72.5615C72.7295 22.164 72.8495 22.116 72.9215 22.02C73.0295 21.924 73.0835 21.804 73.0835 21.66V15.72H75.2615ZM74.1095 25.314C74.4215 25.314 74.6915 25.428 74.9195 25.656C75.1475 25.884 75.2615 26.16 75.2615 26.484C75.2615 26.808 75.1475 27.084 74.9195 27.312C74.6915 27.54 74.4215 27.654 74.1095 27.654C73.7855 27.654 73.5095 27.54 73.2815 27.312C73.0535 27.084 72.9395 26.808 72.9395 26.484C72.9395 26.16 73.0535 25.884 73.2815 25.656C73.5095 25.428 73.7855 25.314 74.1095 25.314ZM81.4665 11.112V22.02C81.4665 22.524 81.3045 22.956 80.9805 23.316C80.6085 23.772 80.1225 24 79.5225 24H76.0485V22.164H78.8205C78.9525 22.164 79.0665 22.116 79.1625 22.02C79.2465 21.936 79.2885 21.834 79.2885 21.714V11.112H81.4665ZM86.1499 11.112V23.55L85.0339 24.45H83.9539V11.112H86.1499ZM98.1624 15.234C98.4864 15.234 98.7624 15.348 98.9904 15.576C99.2184 15.804 99.3324 16.08 99.3324 16.404C99.3324 16.728 99.2184 17.004 98.9904 17.232C98.7624 17.46 98.4864 17.574 98.1624 17.574C97.8504 17.574 97.5804 17.46 97.3524 17.232C97.1244 17.004 97.0104 16.728 97.0104 16.404C97.0104 16.08 97.1244 15.804 97.3524 15.576C97.5804 15.348 97.8504 15.234 98.1624 15.234ZM100.916 15.234C101.228 15.234 101.498 15.348 101.726 15.576C101.954 15.804 102.068 16.08 102.068 16.404C102.068 16.728 101.954 17.004 101.726 17.232C101.498 17.46 101.228 17.574 100.916 17.574C100.592 17.574 100.316 17.46 100.088 17.232C99.8604 17.004 99.7464 16.728 99.7464 16.404C99.7464 16.08 99.8604 15.804 100.088 15.576C100.316 15.348 100.592 15.234 100.916 15.234ZM107.108 15.72V22.02C107.108 22.524 106.952 22.95 106.64 23.298C106.256 23.766 105.764 24 105.164 24H95.0844C94.3044 24 93.6324 23.748 93.0684 23.244C92.3124 22.608 91.9344 21.78 91.9344 20.76V17.916L93.0504 17.016H94.1304V20.76C94.1304 21.18 94.2744 21.522 94.5624 21.786C94.8384 22.038 95.1564 22.164 95.5164 22.164H104.462C104.762 22.164 104.912 22.014 104.912 21.714V15.72H107.108ZM111.796 11.112V21.714C111.796 21.834 111.832 21.93 111.904 22.002C111.976 22.11 112.09 22.164 112.246 22.164H112.714V24H111.544C111.052 24 110.62 23.826 110.248 23.478C109.816 23.082 109.6 22.596 109.6 22.02V11.112H111.796ZM115.923 22.164V24H112.593V22.164H115.923ZM124.361 10.86V12.894L120.599 15.18C122.147 15.744 123.389 16.668 124.325 17.952C125.165 19.128 125.585 20.412 125.585 21.804C125.585 22.452 125.399 22.98 125.027 23.388C124.667 23.796 124.199 24 123.623 24H115.775V22.164H122.921C123.233 22.164 123.389 22.008 123.389 21.696C123.293 20.568 122.879 19.584 122.147 18.744C121.163 17.58 119.813 16.908 118.097 16.728C118.013 16.728 117.971 16.68 117.971 16.584V14.532L124.361 10.86ZM132.043 15.72V22.164H132.961V24H132.025C131.929 25.44 131.359 26.544 130.315 27.312C129.451 27.948 128.389 28.266 127.129 28.266C126.913 28.266 126.679 28.26 126.427 28.248L125.545 27.15V26.376C125.929 26.436 126.301 26.466 126.661 26.466C128.785 26.466 129.847 25.434 129.847 23.37V15.72H132.043ZM136.173 22.164V24H132.843V22.164H136.173ZM138.437 16.026C139.625 15.678 140.663 15.504 141.551 15.504C143.003 15.504 144.173 15.96 145.061 16.872C145.865 17.7 146.267 18.732 146.267 19.968V22.02C146.267 22.512 146.099 22.956 145.763 23.352C145.367 23.784 144.887 24 144.323 24H136.043V22.164H143.621C143.921 22.164 144.071 22.014 144.071 21.714V20.094C144.071 19.254 143.795 18.594 143.243 18.114C142.703 17.634 141.953 17.394 140.993 17.394C140.441 17.394 139.589 17.52 138.437 17.772V16.026ZM156.845 15.72V22.164H157.763V24H156.827C156.731 25.44 156.161 26.544 155.117 27.312C154.253 27.948 153.191 28.266 151.931 28.266C151.715 28.266 151.481 28.26 151.229 28.248L150.347 27.15V26.376C150.731 26.436 151.103 26.466 151.463 26.466C153.587 26.466 154.649 25.434 154.649 23.37V15.72H156.845ZM160.976 22.164V24H157.646V22.164H160.976ZM166.263 15.72V22.02C166.263 22.488 166.107 22.92 165.795 23.316C165.399 23.772 164.907 24 164.319 24H160.845V22.164H163.617C163.749 22.164 163.863 22.116 163.959 22.02C164.043 21.936 164.085 21.834 164.085 21.714V15.72H166.263ZM162.321 25.314C162.645 25.314 162.921 25.428 163.149 25.656C163.377 25.884 163.491 26.16 163.491 26.484C163.491 26.808 163.377 27.084 163.149 27.312C162.921 27.54 162.645 27.654 162.321 27.654C162.009 27.654 161.739 27.54 161.511 27.312C161.283 27.084 161.169 26.808 161.169 26.484C161.169 26.16 161.283 25.884 161.511 25.656C161.739 25.428 162.009 25.314 162.321 25.314ZM165.075 25.314C165.399 25.314 165.669 25.428 165.885 25.656C166.113 25.884 166.227 26.16 166.227 26.484C166.227 26.808 166.113 27.084 165.885 27.312C165.669 27.54 165.399 27.654 165.075 27.654C164.751 27.654 164.475 27.54 164.247 27.312C164.019 27.084 163.905 26.808 163.905 26.484C163.905 26.16 164.019 25.884 164.247 25.656C164.475 25.428 164.751 25.314 165.075 25.314ZM173.808 15.72V22.164H174.726V24H173.79C173.694 25.44 173.124 26.544 172.08 27.312C171.216 27.948 170.154 28.266 168.894 28.266C168.678 28.266 168.444 28.26 168.192 28.248L167.31 27.15V26.376C167.694 26.436 168.066 26.466 168.426 26.466C170.55 26.466 171.612 25.434 171.612 23.37V15.72H173.808ZM177.939 22.164V24H174.609V22.164H177.939ZM183.226 11.76C183.55 11.76 183.826 11.874 184.054 12.102C184.282 12.33 184.396 12.606 184.396 12.93C184.396 13.242 184.282 13.512 184.054 13.74C183.826 13.968 183.55 14.082 183.226 14.082C182.914 14.082 182.644 13.968 182.416 13.74C182.188 13.512 182.074 13.242 182.074 12.93C182.074 12.606 182.188 12.33 182.416 12.102C182.644 11.874 182.914 11.76 183.226 11.76ZM185.962 11.76C186.286 11.76 186.562 11.874 186.79 12.102C187.018 12.33 187.132 12.606 187.132 12.93C187.132 13.242 187.018 13.512 186.79 13.74C186.562 13.968 186.286 14.082 185.962 14.082C185.638 14.082 185.362 13.974 185.134 13.758C184.918 13.53 184.81 13.254 184.81 12.93C184.81 12.606 184.918 12.33 185.134 12.102C185.362 11.874 185.638 11.76 185.962 11.76ZM181.39 22.164C180.85 21.444 180.58 20.574 180.58 19.554C180.58 18.63 180.814 17.832 181.282 17.16C182.038 16.056 183.13 15.504 184.558 15.504C185.638 15.504 186.544 15.84 187.276 16.512C188.128 17.292 188.554 18.306 188.554 19.554C188.554 20.538 188.284 21.408 187.744 22.164H188.986V24H186.286C185.506 24 184.942 23.922 184.594 23.766H184.504C184.168 23.922 183.604 24 182.812 24H177.808V22.164H181.39ZM184.558 22.146C185.098 22.086 185.53 21.84 185.854 21.408C186.19 20.964 186.358 20.4 186.358 19.716C186.358 18.996 186.196 18.42 185.872 17.988C185.548 17.556 185.11 17.34 184.558 17.34C184.018 17.34 183.58 17.556 183.244 17.988C182.92 18.42 182.758 18.996 182.758 19.716C182.758 20.4 182.92 20.964 183.244 21.408C183.58 21.84 184.018 22.086 184.558 22.146ZM192.195 22.164V24H188.865V22.164H192.195ZM193.792 11.76C194.116 11.76 194.392 11.874 194.62 12.102C194.848 12.33 194.962 12.606 194.962 12.93C194.962 13.242 194.848 13.512 194.62 13.74C194.392 13.968 194.116 14.082 193.792 14.082C193.468 14.082 193.192 13.968 192.964 13.74C192.736 13.512 192.622 13.242 192.622 12.93C192.622 12.606 192.736 12.33 192.964 12.102C193.192 11.874 193.468 11.76 193.792 11.76ZM196.528 11.76C196.852 11.76 197.128 11.874 197.356 12.102C197.584 12.33 197.698 12.606 197.698 12.93C197.698 13.242 197.584 13.512 197.356 13.74C197.128 13.968 196.852 14.082 196.528 14.082C196.216 14.082 195.946 13.968 195.718 13.74C195.49 13.512 195.376 13.242 195.376 12.93C195.376 12.606 195.49 12.33 195.718 12.102C195.946 11.874 196.216 11.76 196.528 11.76ZM197.464 15.72V22.02C197.464 22.488 197.308 22.92 196.996 23.316C196.6 23.772 196.108 24 195.52 24H192.046V22.164H194.818C194.95 22.164 195.064 22.116 195.16 22.02C195.244 21.936 195.286 21.834 195.286 21.714V15.72H197.464Z" fill="#2E2E2E"/>
<path d="M47.6815 18.888L47.587 18.8552C47.5792 18.8778 47.5797 18.9024 47.5884 18.9246L47.6815 18.888ZM49.9135 16.206L49.9628 16.293L49.9629 16.293L49.9135 16.206ZM55.0975 16.278L55.0432 16.362L55.0455 16.3634L55.0975 16.278ZM57.1855 18.888L57.2786 18.9246C57.2874 18.902 57.2878 18.8771 57.2797 18.8543L57.1855 18.888ZM56.9875 19.392L57.0287 19.4831C57.0525 19.4724 57.0711 19.4528 57.0806 19.4286L56.9875 19.392ZM55.4575 20.508L55.3867 20.4372L55.3837 20.4406L55.4575 20.508ZM54.4675 22.164L54.3713 22.1368C54.3628 22.167 54.3689 22.1994 54.3878 22.2243C54.4067 22.2493 54.4362 22.264 54.4675 22.264V22.164ZM57.3655 22.164H57.4655C57.4655 22.1088 57.4208 22.064 57.3655 22.064V22.164ZM57.3655 24V24.1C57.4208 24.1 57.4655 24.0552 57.4655 24H57.3655ZM52.4875 23.532L52.5624 23.4657C52.5434 23.4443 52.5162 23.432 52.4875 23.432V23.532ZM52.3975 23.532V23.432C52.3694 23.432 52.3426 23.4438 52.3237 23.4646L52.3975 23.532ZM51.3355 24.036L51.3225 23.9368L51.3191 23.9374L51.3355 24.036ZM51.1375 24.072L51.1537 24.1707L51.1571 24.1701L51.1375 24.072ZM49.6075 24.936L49.6912 24.9908L49.6921 24.9894L49.6075 24.936ZM54.8455 28.662H54.9455C54.9455 28.6307 54.9309 28.6013 54.906 28.5824C54.8811 28.5635 54.8488 28.5573 54.8187 28.5657L54.8455 28.662ZM54.8455 29.418L54.923 29.4812C54.9376 29.4633 54.9455 29.441 54.9455 29.418H54.8455ZM53.8915 30.588L53.9205 30.6837C53.9396 30.6779 53.9565 30.6666 53.969 30.6512L53.8915 30.588ZM52.2355 30.804V30.9041L52.2389 30.9039L52.2355 30.804ZM48.7075 29.778L48.767 29.6976L48.7662 29.6971L48.7075 29.778ZM47.7715 23.874L47.851 23.9348L47.8528 23.9322L47.7715 23.874ZM50.4535 22.326L50.472 22.4243C50.4987 22.4193 50.5222 22.4036 50.5371 22.3809C50.552 22.3581 50.5571 22.3303 50.551 22.3038L50.4535 22.326ZM49.5715 20.706L49.4948 20.7702L49.4952 20.7707L49.5715 20.706ZM47.8795 19.392L47.7864 19.4286C47.796 19.4528 47.8146 19.4724 47.8383 19.4831L47.8795 19.392ZM54.8815 18.744L54.9216 18.8356C54.9476 18.8242 54.9675 18.8024 54.9765 18.7754C54.9854 18.7485 54.9824 18.719 54.9683 18.6944L54.8815 18.744ZM53.7115 17.628L53.7554 17.5381L53.7551 17.538L53.7115 17.628ZM51.1015 17.664L51.0588 17.5736L51.0568 17.5746L51.1015 17.664ZM49.9855 18.744L49.8979 18.6958C49.8844 18.7204 49.8818 18.7495 49.8908 18.776C49.8998 18.8026 49.9195 18.8242 49.9452 18.8355L49.9855 18.744ZM51.2815 19.824L51.205 19.8886L51.2085 19.8923L51.2815 19.824ZM52.3975 21.66L52.3025 21.6911C52.3159 21.7322 52.3543 21.76 52.3975 21.76V21.66ZM52.4695 21.66V21.76C52.5124 21.76 52.5505 21.7327 52.5642 21.6921L52.4695 21.66ZM53.6395 19.734L53.5653 19.667L53.5653 19.667L53.6395 19.734ZM47.776 18.9208C48.1761 17.7677 48.904 16.893 49.9628 16.293L49.8642 16.119C48.763 16.743 48.003 17.6563 47.587 18.8552L47.776 18.9208ZM49.9629 16.293C50.7516 15.8456 51.6046 15.622 52.5235 15.622V15.422C51.5705 15.422 50.6834 15.6544 49.8642 16.119L49.9629 16.293ZM52.5235 15.622C53.4404 15.622 54.2796 15.8685 55.0433 16.362L55.1518 16.194C54.3555 15.6795 53.4786 15.422 52.5235 15.422V15.622ZM55.0455 16.3634C56.0089 16.9508 56.6907 17.8021 57.0914 18.9217L57.2797 18.8543C56.8644 17.6939 56.1542 16.8052 55.1496 16.1926L55.0455 16.3634ZM57.0924 18.8514L56.8944 19.3554L57.0806 19.4286L57.2786 18.9246L57.0924 18.8514ZM56.9463 19.3009C56.4284 19.5352 55.9088 19.9153 55.3868 20.4373L55.5282 20.5787C56.0383 20.0687 56.5386 19.7048 57.0287 19.4831L56.9463 19.3009ZM55.3837 20.4406C54.8722 21.0007 54.5326 21.566 54.3713 22.1368L54.5638 22.1912C54.7144 21.658 55.0348 21.1193 55.5314 20.5754L55.3837 20.4406ZM54.4675 22.264H57.3655V22.064H54.4675V22.264ZM57.2655 22.164V24H57.4655V22.164H57.2655ZM57.3655 23.9H53.4055V24.1H57.3655V23.9ZM53.4055 23.9C53.1048 23.9 52.8244 23.7618 52.5624 23.4657L52.4126 23.5983C52.7027 23.9262 53.0342 24.1 53.4055 24.1V23.9ZM52.4875 23.432H52.3975V23.632H52.4875V23.432ZM52.3237 23.4646C52.091 23.7194 51.7607 23.8792 51.3225 23.9369L51.3486 24.1351C51.8224 24.0728 52.2001 23.8966 52.4714 23.5994L52.3237 23.4646ZM51.3191 23.9374C51.2462 23.9495 51.1791 23.9617 51.1179 23.9739L51.1571 24.1701C51.2159 24.1583 51.2808 24.1465 51.352 24.1346L51.3191 23.9374ZM51.1213 23.9733C50.3722 24.0961 49.8313 24.3944 49.523 24.8826L49.6921 24.9894C49.9597 24.5656 50.4389 24.2879 51.1537 24.1707L51.1213 23.9733ZM49.5239 24.8812C49.2816 25.2509 49.1655 25.7402 49.1655 26.34H49.3655C49.3655 25.7638 49.4774 25.3171 49.6912 24.9908L49.5239 24.8812ZM49.1655 26.34C49.1655 27.2401 49.4644 27.9299 50.0737 28.3908C50.6777 28.8477 51.5718 29.068 52.7395 29.068V28.868C51.5913 28.868 50.7484 28.6503 50.1944 28.2312C49.6456 27.8161 49.3655 27.1919 49.3655 26.34H49.1655ZM52.7395 29.068C53.4217 29.068 54.1327 28.9645 54.8724 28.7583L54.8187 28.5657C54.0943 28.7675 53.4014 28.868 52.7395 28.868V29.068ZM54.7455 28.662V29.418H54.9455V28.662H54.7455ZM54.768 29.3548L53.814 30.5248L53.969 30.6512L54.923 29.4812L54.768 29.3548ZM53.8625 30.4923C53.4787 30.6086 52.9367 30.6802 52.2321 30.7041L52.2389 30.9039C52.9504 30.8798 53.5124 30.8074 53.9205 30.6837L53.8625 30.4923ZM52.2355 30.704C50.8237 30.704 49.67 30.3661 48.767 29.6976L48.648 29.8584C49.593 30.5579 50.7914 30.904 52.2355 30.904V30.704ZM48.7662 29.6971C47.7043 28.9268 47.1695 27.7894 47.1695 26.268H46.9695C46.9695 27.8426 47.5268 29.0452 48.6488 29.859L48.7662 29.6971ZM47.1695 26.268C47.1695 25.2998 47.3996 24.525 47.851 23.9347L47.6921 23.8133C47.2074 24.447 46.9695 25.2682 46.9695 26.268H47.1695ZM47.8528 23.9322C48.4103 23.154 49.2788 22.6488 50.472 22.4243L50.435 22.2277C49.2043 22.4593 48.2847 22.986 47.6902 23.8158L47.8528 23.9322ZM50.551 22.3038C50.4265 21.7558 50.1228 21.2016 49.6478 20.6413L49.4952 20.7707C49.9562 21.3144 50.2406 21.8402 50.356 22.3482L50.551 22.3038ZM49.6482 20.6418C49.1475 20.0435 48.5718 19.5957 47.9208 19.3009L47.8383 19.4831C48.4593 19.7643 49.0115 20.1925 49.4948 20.7702L49.6482 20.6418ZM47.9726 19.3554L47.7746 18.8514L47.5884 18.9246L47.7864 19.4286L47.9726 19.3554ZM54.9683 18.6944C54.671 18.1741 54.2665 17.7875 53.7554 17.5381L53.6677 17.7179C54.1405 17.9485 54.516 18.3059 54.7947 18.7936L54.9683 18.6944ZM53.7551 17.538C53.3681 17.3508 52.939 17.258 52.4695 17.258V17.458C52.912 17.458 53.3109 17.5452 53.668 17.718L53.7551 17.538ZM52.4695 17.258C51.9748 17.258 51.5042 17.3632 51.0588 17.5736L51.1442 17.7544C51.5628 17.5568 52.0042 17.458 52.4695 17.458V17.258ZM51.0568 17.5746C50.5582 17.8238 50.1715 18.1984 49.8979 18.6958L50.0731 18.7922C50.3276 18.3296 50.6848 17.9842 51.1462 17.7534L51.0568 17.5746ZM49.9452 18.8355C50.3335 19.0068 50.7538 19.3541 51.2051 19.8885L51.3579 19.7595C50.8972 19.2139 50.4536 18.8412 50.0259 18.6525L49.9452 18.8355ZM51.2085 19.8923C51.7277 20.4469 52.0915 21.0465 52.3025 21.6911L52.4926 21.6289C52.2715 20.9535 51.8914 20.3291 51.3545 19.7557L51.2085 19.8923ZM52.3975 21.76H52.4695V21.56H52.3975V21.76ZM52.5642 21.6921C52.7872 21.0349 53.1694 20.4045 53.7138 19.801L53.5653 19.667C53.0056 20.2875 52.6078 20.9411 52.3748 21.6279L52.5642 21.6921ZM53.7138 19.801C54.1532 19.3141 54.556 18.9956 54.9216 18.8356L54.8414 18.6524C54.4391 18.8284 54.0139 19.1699 53.5653 19.667L53.7138 19.801ZM60.5699 22.164H60.6699C60.6699 22.1088 60.6252 22.064 60.5699 22.064V22.164ZM60.5699 24V24.1C60.6252 24.1 60.6699 24.0552 60.6699 24H60.5699ZM57.2399 24H57.1399C57.1399 24.0552 57.1847 24.1 57.2399 24.1V24ZM57.2399 22.164V22.064C57.1847 22.064 57.1399 22.1088 57.1399 22.164H57.2399ZM60.4699 22.164V24H60.6699V22.164H60.4699ZM60.5699 23.9H57.2399V24.1H60.5699V23.9ZM57.3399 24V22.164H57.1399V24H57.3399ZM57.2399 22.264H60.5699V22.064H57.2399V22.264ZM65.8572 15.72H65.9572C65.9572 15.6648 65.9124 15.62 65.8572 15.62V15.72ZM65.8572 22.164H65.7572C65.7572 22.2192 65.8019 22.264 65.8572 22.264V22.164ZM66.7752 22.164H66.8752C66.8752 22.1088 66.8304 22.064 66.7752 22.064V22.164ZM66.7752 24V24.1C66.8304 24.1 66.8752 24.0552 66.8752 24H66.7752ZM66.1452 24L66.0709 24.067C66.0899 24.088 66.1169 24.1 66.1452 24.1V24ZM65.4792 23.262L65.5534 23.195C65.5344 23.174 65.5075 23.162 65.4792 23.162V23.262ZM65.4432 23.262V23.162C65.4134 23.162 65.3852 23.1753 65.3662 23.1982L65.4432 23.262ZM60.4392 24H60.3392C60.3392 24.0552 60.3839 24.1 60.4392 24.1V24ZM60.4392 22.164V22.064C60.3839 22.064 60.3392 22.1088 60.3392 22.164H60.4392ZM63.5172 22.02L63.4507 21.9453C63.4457 21.9497 63.4412 21.9546 63.4372 21.96L63.5172 22.02ZM63.6792 15.72V15.62C63.6239 15.62 63.5792 15.6648 63.5792 15.72H63.6792ZM62.7792 25.656L62.7085 25.7267L62.7792 25.656ZM62.7792 27.312L62.8499 27.3827L62.7792 27.312ZM61.1232 27.312L61.0525 27.3827L61.1232 27.312ZM61.1232 25.656L61.0525 25.5853L61.1232 25.656ZM65.5152 27.312L65.5859 27.3827L65.5152 27.312ZM63.8772 27.312L63.8065 27.3827L63.8772 27.312ZM63.8772 25.656L63.8065 25.5853L63.8772 25.656ZM65.7572 15.72V21.894H65.9572V15.72H65.7572ZM65.7572 21.894V22.164H65.9572V21.894H65.7572ZM65.8572 22.264H66.7752V22.064H65.8572V22.264ZM66.6752 22.164V24H66.8752V22.164H66.6752ZM66.7752 23.9H66.1452V24.1H66.7752V23.9ZM66.2194 23.933L65.5534 23.195L65.4049 23.329L66.0709 24.067L66.2194 23.933ZM65.4792 23.162H65.4432V23.362H65.4792V23.162ZM65.3662 23.1982C64.9762 23.6684 64.4939 23.9 63.9132 23.9V24.1C64.5564 24.1 65.0941 23.8396 65.5201 23.3258L65.3662 23.1982ZM63.9132 23.9H60.4392V24.1H63.9132V23.9ZM60.5392 24V22.164H60.3392V24H60.5392ZM60.4392 22.264H63.1572V22.064H60.4392V22.264ZM63.1572 22.264C63.3432 22.264 63.4995 22.2103 63.5972 22.08L63.4372 21.96C63.3909 22.0217 63.3071 22.064 63.1572 22.064V22.264ZM63.5836 22.0947C63.7129 21.9798 63.7792 21.8327 63.7792 21.66H63.5792C63.5792 21.7753 63.5375 21.8682 63.4507 21.9453L63.5836 22.0947ZM63.7792 21.66V15.72H63.5792V21.66H63.7792ZM63.6792 15.82H65.8572V15.62H63.6792V15.82ZM61.9512 25.414C62.2488 25.414 62.4993 25.5176 62.7085 25.7267L62.8499 25.5853C62.603 25.3384 62.3015 25.214 61.9512 25.214V25.414ZM62.7085 25.7267C62.9176 25.9359 63.0212 26.1864 63.0212 26.484H63.2212C63.2212 26.1336 63.0967 25.8321 62.8499 25.5853L62.7085 25.7267ZM63.0212 26.484C63.0212 26.7816 62.9176 27.0321 62.7085 27.2413L62.8499 27.3827C63.0967 27.1359 63.2212 26.8344 63.2212 26.484H63.0212ZM62.7085 27.2413C62.4993 27.4504 62.2488 27.554 61.9512 27.554V27.754C62.3015 27.754 62.603 27.6296 62.8499 27.3827L62.7085 27.2413ZM61.9512 27.554C61.6535 27.554 61.403 27.4504 61.1939 27.2413L61.0525 27.3827C61.2993 27.6296 61.6008 27.754 61.9512 27.754V27.554ZM61.1939 27.2413C60.9847 27.0321 60.8812 26.7816 60.8812 26.484H60.6812C60.6812 26.8344 60.8056 27.1359 61.0525 27.3827L61.1939 27.2413ZM60.8812 26.484C60.8812 26.1864 60.9847 25.9359 61.1939 25.7267L61.0525 25.5853C60.8056 25.8321 60.6812 26.1336 60.6812 26.484H60.8812ZM61.1939 25.7267C61.403 25.5176 61.6535 25.414 61.9512 25.414V25.214C61.6008 25.214 61.2993 25.3384 61.0525 25.5853L61.1939 25.7267ZM64.6872 25.414C64.9848 25.414 65.2353 25.5176 65.4445 25.7267L65.5859 25.5853C65.339 25.3384 65.0375 25.214 64.6872 25.214V25.414ZM65.4445 25.7267C65.6536 25.9359 65.7572 26.1864 65.7572 26.484H65.9572C65.9572 26.1336 65.8327 25.8321 65.5859 25.5853L65.4445 25.7267ZM65.7572 26.484C65.7572 26.7816 65.6536 27.0321 65.4445 27.2413L65.5859 27.3827C65.8327 27.1359 65.9572 26.8344 65.9572 26.484H65.7572ZM65.4445 27.2413C65.2353 27.4504 64.9848 27.554 64.6872 27.554V27.754C65.0375 27.754 65.339 27.6296 65.5859 27.3827L65.4445 27.2413ZM64.6872 27.554C64.4027 27.554 64.1578 27.4512 63.9479 27.2413L63.8065 27.3827C64.0525 27.6288 64.3477 27.754 64.6872 27.754V27.554ZM63.9479 27.2413C63.7387 27.0321 63.6352 26.7816 63.6352 26.484H63.4352C63.4352 26.8344 63.5596 27.1359 63.8065 27.3827L63.9479 27.2413ZM63.6352 26.484C63.6352 26.1864 63.7387 25.9359 63.9479 25.7267L63.8065 25.5853C63.5596 25.8321 63.4352 26.1336 63.4352 26.484H63.6352ZM63.9479 25.7267C64.1578 25.5168 64.4027 25.414 64.6872 25.414V25.214C64.3477 25.214 64.0525 25.3392 63.8065 25.5853L63.9479 25.7267ZM69.9742 22.164H70.0742C70.0742 22.1088 70.0295 22.064 69.9742 22.064V22.164ZM69.9742 24V24.1C70.0295 24.1 70.0742 24.0552 70.0742 24H69.9742ZM66.6442 24H66.5442C66.5442 24.0552 66.589 24.1 66.6442 24.1V24ZM66.6442 22.164V22.064C66.589 22.064 66.5442 22.1088 66.5442 22.164H66.6442ZM69.8742 22.164V24H70.0742V22.164H69.8742ZM69.9742 23.9H66.6442V24.1H69.9742V23.9ZM66.7442 24V22.164H66.5442V24H66.7442ZM66.6442 22.264H69.9742V22.064H66.6442V22.264ZM75.2615 15.72H75.3615C75.3615 15.6648 75.3167 15.62 75.2615 15.62V15.72ZM75.2615 22.164H75.1615C75.1615 22.2192 75.2062 22.264 75.2615 22.264V22.164ZM76.1795 22.164H76.2795C76.2795 22.1088 76.2347 22.064 76.1795 22.064V22.164ZM76.1795 24V24.1C76.2347 24.1 76.2795 24.0552 76.2795 24H76.1795ZM75.5495 24L75.4752 24.067C75.4942 24.088 75.5212 24.1 75.5495 24.1V24ZM74.8835 23.262L74.9577 23.195C74.9387 23.174 74.9118 23.162 74.8835 23.162V23.262ZM74.8475 23.262V23.162C74.8177 23.162 74.7895 23.1753 74.7705 23.1982L74.8475 23.262ZM69.8435 24H69.7435C69.7435 24.0552 69.7882 24.1 69.8435 24.1V24ZM69.8435 22.164V22.064C69.7882 22.064 69.7435 22.1088 69.7435 22.164H69.8435ZM72.9215 22.02L72.855 21.9453C72.85 21.9497 72.8455 21.9546 72.8415 21.96L72.9215 22.02ZM73.0835 15.72V15.62C73.0282 15.62 72.9835 15.6648 72.9835 15.72H73.0835ZM74.9195 27.312L74.9902 27.3827L74.9195 27.312ZM73.2815 27.312L73.2108 27.3827L73.2815 27.312ZM73.2815 25.656L73.2108 25.5853L73.2815 25.656ZM75.1615 15.72V21.894H75.3615V15.72H75.1615ZM75.1615 21.894V22.164H75.3615V21.894H75.1615ZM75.2615 22.264H76.1795V22.064H75.2615V22.264ZM76.0795 22.164V24H76.2795V22.164H76.0795ZM76.1795 23.9H75.5495V24.1H76.1795V23.9ZM75.6237 23.933L74.9577 23.195L74.8092 23.329L75.4752 24.067L75.6237 23.933ZM74.8835 23.162H74.8475V23.362H74.8835V23.162ZM74.7705 23.1982C74.3805 23.6684 73.8982 23.9 73.3175 23.9V24.1C73.9607 24.1 74.4984 23.8396 74.9244 23.3258L74.7705 23.1982ZM73.3175 23.9H69.8435V24.1H73.3175V23.9ZM69.9435 24V22.164H69.7435V24H69.9435ZM69.8435 22.264H72.5615V22.064H69.8435V22.264ZM72.5615 22.264C72.7475 22.264 72.9038 22.2103 73.0015 22.08L72.8415 21.96C72.7952 22.0217 72.7114 22.064 72.5615 22.064V22.264ZM72.9879 22.0947C73.1172 21.9798 73.1835 21.8327 73.1835 21.66H72.9835C72.9835 21.7753 72.9418 21.8682 72.855 21.9453L72.9879 22.0947ZM73.1835 21.66V15.72H72.9835V21.66H73.1835ZM73.0835 15.82H75.2615V15.62H73.0835V15.82ZM74.1095 25.414C74.394 25.414 74.6388 25.5168 74.8488 25.7267L74.9902 25.5853C74.7441 25.3392 74.449 25.214 74.1095 25.214V25.414ZM74.8488 25.7267C75.0579 25.9359 75.1615 26.1864 75.1615 26.484H75.3615C75.3615 26.1336 75.237 25.8321 74.9902 25.5853L74.8488 25.7267ZM75.1615 26.484C75.1615 26.7816 75.0579 27.0321 74.8488 27.2413L74.9902 27.3827C75.237 27.1359 75.3615 26.8344 75.3615 26.484H75.1615ZM74.8488 27.2413C74.6388 27.4512 74.394 27.554 74.1095 27.554V27.754C74.449 27.754 74.7441 27.6288 74.9902 27.3827L74.8488 27.2413ZM74.1095 27.554C73.8118 27.554 73.5613 27.4504 73.3522 27.2413L73.2108 27.3827C73.4576 27.6296 73.7591 27.754 74.1095 27.754V27.554ZM73.3522 27.2413C73.143 27.0321 73.0395 26.7816 73.0395 26.484H72.8395C72.8395 26.8344 72.9639 27.1359 73.2108 27.3827L73.3522 27.2413ZM73.0395 26.484C73.0395 26.1864 73.143 25.9359 73.3522 25.7267L73.2108 25.5853C72.9639 25.8321 72.8395 26.1336 72.8395 26.484H73.0395ZM73.3522 25.7267C73.5613 25.5176 73.8118 25.414 74.1095 25.414V25.214C73.7591 25.214 73.4576 25.3384 73.2108 25.5853L73.3522 25.7267ZM81.4665 11.112H81.5665C81.5665 11.0568 81.5218 11.012 81.4665 11.012V11.112ZM80.9805 23.316L80.9061 23.249L80.9031 23.2528L80.9805 23.316ZM76.0485 24H75.9485C75.9485 24.0552 75.9933 24.1 76.0485 24.1V24ZM76.0485 22.164V22.064C75.9933 22.064 75.9485 22.1088 75.9485 22.164H76.0485ZM79.2885 11.112V11.012C79.2333 11.012 79.1885 11.0568 79.1885 11.112H79.2885ZM81.3665 11.112V22.02H81.5665V11.112H81.3665ZM81.3665 22.02C81.3665 22.5004 81.213 22.9083 80.9062 23.2491L81.0549 23.3829C81.3961 23.0037 81.5665 22.5476 81.5665 22.02H81.3665ZM80.9031 23.2528C80.5505 23.685 80.0932 23.9 79.5225 23.9V24.1C80.1519 24.1 80.6666 23.859 81.058 23.3792L80.9031 23.2528ZM79.5225 23.9H76.0485V24.1H79.5225V23.9ZM76.1485 24V22.164H75.9485V24H76.1485ZM76.0485 22.264H78.8205V22.064H76.0485V22.264ZM78.8205 22.264C78.9799 22.264 79.1191 22.2049 79.2332 22.0907L79.0918 21.9493C79.014 22.0271 78.9252 22.064 78.8205 22.064V22.264ZM79.2332 22.0907C79.3362 21.9877 79.3885 21.8602 79.3885 21.714H79.1885C79.1885 21.8078 79.1569 21.8843 79.0918 21.9493L79.2332 22.0907ZM79.3885 21.714V11.112H79.1885V21.714H79.3885ZM79.2885 11.212H81.4665V11.012H79.2885V11.212ZM86.1499 11.112H86.2499C86.2499 11.0568 86.2051 11.012 86.1499 11.012V11.112ZM86.1499 23.55L86.2127 23.6278C86.2362 23.6089 86.2499 23.5802 86.2499 23.55H86.1499ZM85.0339 24.45V24.55C85.0568 24.55 85.0789 24.5422 85.0967 24.5278L85.0339 24.45ZM83.9539 24.45H83.8539C83.8539 24.5052 83.8987 24.55 83.9539 24.55V24.45ZM83.9539 11.112V11.012C83.8987 11.012 83.8539 11.0568 83.8539 11.112H83.9539ZM86.0499 11.112V23.55H86.2499V11.112H86.0499ZM86.0871 23.4722L84.9711 24.3722L85.0967 24.5278L86.2127 23.6278L86.0871 23.4722ZM85.0339 24.35H83.9539V24.55H85.0339V24.35ZM84.0539 24.45V11.112H83.8539V24.45H84.0539ZM83.9539 11.212H86.1499V11.012H83.9539V11.212ZM97.3524 17.232L97.2817 17.3027L97.3524 17.232ZM97.3524 15.576L97.2817 15.5053L97.3524 15.576ZM107.108 15.72H107.208C107.208 15.6648 107.164 15.62 107.108 15.62V15.72ZM106.64 23.298L106.566 23.2312L106.563 23.2346L106.64 23.298ZM93.0684 23.244L93.135 23.1694L93.1328 23.1675L93.0684 23.244ZM91.9344 17.916L91.8716 17.8382C91.8481 17.8571 91.8344 17.8858 91.8344 17.916H91.9344ZM93.0504 17.016V16.916C93.0275 16.916 93.0054 16.9238 92.9876 16.9382L93.0504 17.016ZM94.1304 17.016H94.2304C94.2304 16.9608 94.1856 16.916 94.1304 16.916V17.016ZM94.5624 21.786L94.4948 21.8597L94.495 21.8598L94.5624 21.786ZM104.912 15.72V15.62C104.857 15.62 104.812 15.6648 104.812 15.72H104.912ZM98.1624 15.334C98.46 15.334 98.7105 15.4376 98.9197 15.6467L99.0611 15.5053C98.8142 15.2584 98.5128 15.134 98.1624 15.134V15.334ZM98.9197 15.6467C99.1288 15.8559 99.2324 16.1064 99.2324 16.404H99.4324C99.4324 16.0536 99.308 15.7521 99.0611 15.5053L98.9197 15.6467ZM99.2324 16.404C99.2324 16.7016 99.1288 16.9521 98.9197 17.1613L99.0611 17.3027C99.308 17.0559 99.4324 16.7544 99.4324 16.404H99.2324ZM98.9197 17.1613C98.7105 17.3704 98.46 17.474 98.1624 17.474V17.674C98.5128 17.674 98.8142 17.5496 99.0611 17.3027L98.9197 17.1613ZM98.1624 17.474C97.8779 17.474 97.633 17.3712 97.4231 17.1613L97.2817 17.3027C97.5277 17.5488 97.8229 17.674 98.1624 17.674V17.474ZM97.4231 17.1613C97.2139 16.9521 97.1104 16.7016 97.1104 16.404H96.9104C96.9104 16.7544 97.0348 17.0559 97.2817 17.3027L97.4231 17.1613ZM97.1104 16.404C97.1104 16.1064 97.2139 15.8559 97.4231 15.6467L97.2817 15.5053C97.0348 15.7521 96.9104 16.0536 96.9104 16.404H97.1104ZM97.4231 15.6467C97.633 15.4368 97.8779 15.334 98.1624 15.334V15.134C97.8229 15.134 97.5277 15.2592 97.2817 15.5053L97.4231 15.6467ZM100.916 15.334C101.201 15.334 101.446 15.4368 101.656 15.6467L101.797 15.5053C101.551 15.2592 101.256 15.134 100.916 15.134V15.334ZM101.656 15.6467C101.865 15.8559 101.968 16.1064 101.968 16.404H102.168C102.168 16.0536 102.044 15.7521 101.797 15.5053L101.656 15.6467ZM101.968 16.404C101.968 16.7016 101.865 16.9521 101.656 17.1613L101.797 17.3027C102.044 17.0559 102.168 16.7544 102.168 16.404H101.968ZM101.656 17.1613C101.446 17.3712 101.201 17.474 100.916 17.474V17.674C101.256 17.674 101.551 17.5488 101.797 17.3027L101.656 17.1613ZM100.916 17.474C100.619 17.474 100.368 17.3704 100.159 17.1613L100.018 17.3027C100.265 17.5496 100.566 17.674 100.916 17.674V17.474ZM100.159 17.1613C99.95 16.9521 99.8464 16.7016 99.8464 16.404H99.6464C99.6464 16.7544 99.7708 17.0559 100.018 17.3027L100.159 17.1613ZM99.8464 16.404C99.8464 16.1064 99.95 15.8559 100.159 15.6467L100.018 15.5053C99.7708 15.7521 99.6464 16.0536 99.6464 16.404H99.8464ZM100.159 15.6467C100.368 15.4376 100.619 15.334 100.916 15.334V15.134C100.566 15.134 100.265 15.2584 100.018 15.5053L100.159 15.6467ZM107.008 15.72V22.02H107.208V15.72H107.008ZM107.008 22.02C107.008 22.5015 106.86 22.9031 106.566 23.2312L106.715 23.3648C107.045 22.9969 107.208 22.5465 107.208 22.02H107.008ZM106.563 23.2346C106.198 23.6797 105.734 23.9 105.164 23.9V24.1C105.795 24.1 106.315 23.8523 106.718 23.3614L106.563 23.2346ZM105.164 23.9H95.0844V24.1H105.164V23.9ZM95.0844 23.9C94.3281 23.9 93.6801 23.6565 93.135 23.1694L93.0018 23.3186C93.5847 23.8395 94.2806 24.1 95.0844 24.1V23.9ZM93.1328 23.1675C92.4002 22.5512 92.0344 21.7516 92.0344 20.76H91.8344C91.8344 21.8084 92.2246 22.6648 93.004 23.3205L93.1328 23.1675ZM92.0344 20.76V17.916H91.8344V20.76H92.0344ZM91.9972 17.9938L93.1132 17.0938L92.9876 16.9382L91.8716 17.8382L91.9972 17.9938ZM93.0504 17.116H94.1304V16.916H93.0504V17.116ZM94.0304 17.016V20.76H94.2304V17.016H94.0304ZM94.0304 20.76C94.0304 21.2057 94.1845 21.5752 94.4948 21.8597L94.63 21.7123C94.3643 21.4688 94.2304 21.1543 94.2304 20.76H94.0304ZM94.495 21.8598C94.7886 22.128 95.1304 22.264 95.5164 22.264V22.064C95.1824 22.064 94.8882 21.948 94.6298 21.7122L94.495 21.8598ZM95.5164 22.264H104.462V22.064H95.5164V22.264ZM104.462 22.264C104.628 22.264 104.77 22.2226 104.871 22.1222C104.971 22.0218 105.012 21.8794 105.012 21.714H104.812C104.812 21.8486 104.779 21.9312 104.729 21.9808C104.68 22.0304 104.597 22.064 104.462 22.064V22.264ZM105.012 21.714V15.72H104.812V21.714H105.012ZM104.912 15.82H107.108V15.62H104.912V15.82ZM111.796 11.112H111.896C111.896 11.0568 111.852 11.012 111.796 11.012V11.112ZM111.904 22.002L111.988 21.9465C111.984 21.9411 111.98 21.9359 111.975 21.9313L111.904 22.002ZM112.714 22.164H112.814C112.814 22.1088 112.77 22.064 112.714 22.064V22.164ZM112.714 24V24.1C112.77 24.1 112.814 24.0552 112.814 24H112.714ZM110.248 23.478L110.317 23.405L110.316 23.4043L110.248 23.478ZM109.6 11.112V11.012C109.545 11.012 109.5 11.0568 109.5 11.112H109.6ZM111.696 11.112V21.714H111.896V11.112H111.696ZM111.696 21.714C111.696 21.8554 111.74 21.9786 111.834 22.0727L111.975 21.9313C111.925 21.8814 111.896 21.8126 111.896 21.714H111.696ZM111.821 22.0575C111.916 22.1992 112.065 22.264 112.246 22.264V22.064C112.116 22.064 112.037 22.0208 111.988 21.9465L111.821 22.0575ZM112.246 22.264H112.714V22.064H112.246V22.264ZM112.614 22.164V24H112.814V22.164H112.614ZM112.714 23.9H111.544V24.1H112.714V23.9ZM111.544 23.9C111.079 23.9 110.671 23.7363 110.317 23.405L110.18 23.551C110.57 23.9157 111.026 24.1 111.544 24.1V23.9ZM110.316 23.4043C109.904 23.0268 109.7 22.5674 109.7 22.02H109.5C109.5 22.6246 109.729 23.1371 110.181 23.5517L110.316 23.4043ZM109.7 22.02V11.112H109.5V22.02H109.7ZM109.6 11.212H111.796V11.012H109.6V11.212ZM115.923 22.164H116.023C116.023 22.1088 115.979 22.064 115.923 22.064V22.164ZM115.923 24V24.1C115.979 24.1 116.023 24.0552 116.023 24H115.923ZM112.593 24H112.493C112.493 24.0552 112.538 24.1 112.593 24.1V24ZM112.593 22.164V22.064C112.538 22.064 112.493 22.1088 112.493 22.164H112.593ZM115.823 22.164V24H116.023V22.164H115.823ZM115.923 23.9H112.593V24.1H115.923V23.9ZM112.693 24V22.164H112.493V24H112.693ZM112.593 22.264H115.923V22.064H112.593V22.264ZM124.361 10.86H124.461C124.461 10.8243 124.442 10.7913 124.411 10.7734C124.38 10.7556 124.342 10.7555 124.311 10.7733L124.361 10.86ZM124.361 12.894L124.413 12.9795C124.442 12.9613 124.461 12.9289 124.461 12.894H124.361ZM120.599 15.18L120.547 15.0945C120.514 15.1145 120.495 15.1515 120.499 15.1898C120.503 15.2281 120.528 15.2608 120.564 15.274L120.599 15.18ZM124.325 17.952L124.406 17.8939L124.405 17.8931L124.325 17.952ZM125.027 23.388L124.953 23.3206L124.952 23.3218L125.027 23.388ZM115.775 24H115.675C115.675 24.0552 115.719 24.1 115.775 24.1V24ZM115.775 22.164V22.064C115.719 22.064 115.675 22.1088 115.675 22.164H115.775ZM123.389 21.696H123.489L123.488 21.6875L123.389 21.696ZM122.147 18.744L122.07 18.8086L122.071 18.8097L122.147 18.744ZM118.097 16.728L118.107 16.628H118.097V16.728ZM117.971 14.532L117.921 14.4453C117.89 14.4631 117.871 14.4962 117.871 14.532H117.971ZM124.261 10.86V12.894H124.461V10.86H124.261ZM124.309 12.8085L120.547 15.0945L120.651 15.2655L124.413 12.9795L124.309 12.8085ZM120.564 15.274C122.095 15.8314 123.32 16.7436 124.244 18.0109L124.405 17.8931C123.457 16.5924 122.199 15.6566 120.633 15.086L120.564 15.274ZM124.243 18.0101C125.072 19.1699 125.485 20.4337 125.485 21.804H125.685C125.685 20.3903 125.258 19.0861 124.406 17.8939L124.243 18.0101ZM125.485 21.804C125.485 22.4317 125.305 22.9342 124.953 23.3206L125.101 23.4554C125.492 23.0258 125.685 22.4723 125.685 21.804H125.485ZM124.952 23.3218C124.612 23.7069 124.172 23.9 123.623 23.9V24.1C124.225 24.1 124.721 23.8851 125.102 23.4542L124.952 23.3218ZM123.623 23.9H115.775V24.1H123.623V23.9ZM115.875 24V22.164H115.675V24H115.875ZM115.775 22.264H122.921V22.064H115.775V22.264ZM122.921 22.264C123.092 22.264 123.239 22.2211 123.342 22.1177C123.446 22.0143 123.489 21.8674 123.489 21.696H123.289C123.289 21.8366 123.254 21.9237 123.201 21.9763C123.148 22.0289 123.061 22.064 122.921 22.064V22.264ZM123.488 21.6875C123.391 20.5387 122.968 19.5346 122.222 18.6783L122.071 18.8097C122.789 19.6334 123.195 20.5973 123.289 21.7045L123.488 21.6875ZM122.223 18.6794C121.22 17.4931 119.845 16.8109 118.107 16.6285L118.086 16.8275C119.78 17.0051 121.105 17.6669 122.07 18.8086L122.223 18.6794ZM118.097 16.628C118.085 16.628 118.079 16.6263 118.077 16.6256C118.076 16.625 118.077 16.6251 118.077 16.6262C118.079 16.6277 118.071 16.6196 118.071 16.584H117.871C117.871 16.6444 117.884 16.7083 117.927 16.7579C117.972 16.8099 118.036 16.828 118.097 16.828V16.628ZM118.071 16.584V14.532H117.871V16.584H118.071ZM118.021 14.6187L124.411 10.9467L124.311 10.7733L117.921 14.4453L118.021 14.6187ZM132.043 15.72H132.143C132.143 15.6648 132.098 15.62 132.043 15.62V15.72ZM132.043 22.164H131.943C131.943 22.2192 131.988 22.264 132.043 22.264V22.164ZM132.961 22.164H133.061C133.061 22.1088 133.016 22.064 132.961 22.064V22.164ZM132.961 24V24.1C133.016 24.1 133.061 24.0552 133.061 24H132.961ZM132.025 24V23.9C131.972 23.9 131.928 23.9408 131.925 23.9933L132.025 24ZM130.315 27.312L130.255 27.2314L130.255 27.2315L130.315 27.312ZM126.427 28.248L126.349 28.3106C126.367 28.333 126.393 28.3465 126.422 28.3479L126.427 28.248ZM125.545 27.15H125.445C125.445 27.1728 125.453 27.1949 125.467 27.2126L125.545 27.15ZM125.545 26.376L125.56 26.2772C125.531 26.2727 125.502 26.281 125.48 26.3C125.458 26.319 125.445 26.3468 125.445 26.376H125.545ZM129.847 15.72V15.62C129.792 15.62 129.747 15.6648 129.747 15.72H129.847ZM131.943 15.72V22.164H132.143V15.72H131.943ZM132.043 22.264H132.961V22.064H132.043V22.264ZM132.861 22.164V24H133.061V22.164H132.861ZM132.961 23.9H132.025V24.1H132.961V23.9ZM131.925 23.9933C131.831 25.4077 131.273 26.483 130.255 27.2314L130.374 27.3926C131.445 26.605 132.027 25.4723 132.125 24.0067L131.925 23.9933ZM130.255 27.2315C129.411 27.8527 128.371 28.166 127.129 28.166V28.366C128.406 28.366 129.49 28.0433 130.374 27.3925L130.255 27.2315ZM127.129 28.166C126.915 28.166 126.682 28.16 126.431 28.1481L126.422 28.3479C126.675 28.36 126.911 28.366 127.129 28.366V28.166ZM126.505 28.1854L125.623 27.0874L125.467 27.2126L126.349 28.3106L126.505 28.1854ZM125.645 27.15V26.376H125.445V27.15H125.645ZM125.529 26.4748C125.918 26.5355 126.295 26.566 126.661 26.566V26.366C126.306 26.366 125.939 26.3365 125.56 26.2772L125.529 26.4748ZM126.661 26.566C127.737 26.566 128.563 26.3045 129.12 25.7637C129.677 25.2225 129.947 24.4182 129.947 23.37H129.747C129.747 24.3858 129.486 25.1295 128.981 25.6203C128.475 26.1115 127.708 26.366 126.661 26.366V26.566ZM129.947 23.37V15.72H129.747V23.37H129.947ZM129.847 15.82H132.043V15.62H129.847V15.82ZM136.173 22.164H136.273C136.273 22.1088 136.229 22.064 136.173 22.064V22.164ZM136.173 24V24.1C136.229 24.1 136.273 24.0552 136.273 24H136.173ZM132.843 24H132.743C132.743 24.0552 132.788 24.1 132.843 24.1V24ZM132.843 22.164V22.064C132.788 22.064 132.743 22.1088 132.743 22.164H132.843ZM136.073 22.164V24H136.273V22.164H136.073ZM136.173 23.9H132.843V24.1H136.173V23.9ZM132.943 24V22.164H132.743V24H132.943ZM132.843 22.264H136.173V22.064H132.843V22.264ZM138.437 16.026L138.409 15.93C138.366 15.9425 138.337 15.9816 138.337 16.026H138.437ZM145.061 16.872L145.132 16.8023L145.132 16.8022L145.061 16.872ZM145.763 23.352L145.836 23.4196L145.839 23.4167L145.763 23.352ZM136.043 24H135.943C135.943 24.0552 135.987 24.1 136.043 24.1V24ZM136.043 22.164V22.064C135.987 22.064 135.943 22.1088 135.943 22.164H136.043ZM143.243 18.114L143.176 18.1887L143.177 18.1895L143.243 18.114ZM138.437 17.772H138.337C138.337 17.8023 138.35 17.8309 138.374 17.8499C138.398 17.8689 138.428 17.8762 138.458 17.8697L138.437 17.772ZM138.465 16.122C139.647 15.7757 140.675 15.604 141.551 15.604V15.404C140.65 15.404 139.602 15.5803 138.409 15.93L138.465 16.122ZM141.551 15.604C142.98 15.604 144.123 16.0519 144.989 16.9418L145.132 16.8022C144.223 15.8681 143.026 15.404 141.551 15.404V15.604ZM144.989 16.9417C145.773 17.7496 146.167 18.756 146.167 19.968H146.367C146.367 18.708 145.956 17.6504 145.132 16.8023L144.989 16.9417ZM146.167 19.968V22.02H146.367V19.968H146.167ZM146.167 22.02C146.167 22.4869 146.008 22.9083 145.686 23.2873L145.839 23.4167C146.189 23.0037 146.367 22.5371 146.367 22.02H146.167ZM145.689 23.2844C145.311 23.6967 144.857 23.9 144.323 23.9V24.1C144.916 24.1 145.422 23.8713 145.836 23.4196L145.689 23.2844ZM144.323 23.9H136.043V24.1H144.323V23.9ZM136.143 24V22.164H135.943V24H136.143ZM136.043 22.264H143.621V22.064H136.043V22.264ZM143.621 22.264C143.786 22.264 143.929 22.2226 144.029 22.1222C144.129 22.0218 144.171 21.8794 144.171 21.714H143.971C143.971 21.8486 143.937 21.9312 143.887 21.9808C143.838 22.0304 143.755 22.064 143.621 22.064V22.264ZM144.171 21.714V20.094H143.971V21.714H144.171ZM144.171 20.094C144.171 19.2298 143.885 18.5405 143.308 18.0385L143.177 18.1895C143.704 18.6475 143.971 19.2782 143.971 20.094H144.171ZM143.309 18.0393C142.745 17.5383 141.969 17.294 140.993 17.294V17.494C141.936 17.494 142.66 17.7297 143.176 18.1887L143.309 18.0393ZM140.993 17.294C140.429 17.294 139.568 17.4221 138.415 17.6743L138.458 17.8697C139.609 17.6179 140.452 17.494 140.993 17.494V17.294ZM138.537 17.772V16.026H138.337V17.772H138.537ZM156.845 15.72H156.945C156.945 15.6648 156.901 15.62 156.845 15.62V15.72ZM156.845 22.164H156.745C156.745 22.2192 156.79 22.264 156.845 22.264V22.164ZM157.763 22.164H157.863C157.863 22.1088 157.819 22.064 157.763 22.064V22.164ZM157.763 24V24.1C157.819 24.1 157.863 24.0552 157.863 24H157.763ZM156.827 24V23.9C156.775 23.9 156.731 23.9408 156.728 23.9933L156.827 24ZM155.117 27.312L155.058 27.2314L155.058 27.2315L155.117 27.312ZM151.229 28.248L151.152 28.3106C151.169 28.333 151.196 28.3465 151.225 28.3479L151.229 28.248ZM150.347 27.15H150.247C150.247 27.1728 150.255 27.1949 150.27 27.2126L150.347 27.15ZM150.347 26.376L150.363 26.2772C150.334 26.2727 150.305 26.281 150.282 26.3C150.26 26.319 150.247 26.3468 150.247 26.376H150.347ZM154.649 15.72V15.62C154.594 15.62 154.549 15.6648 154.549 15.72H154.649ZM156.745 15.72V22.164H156.945V15.72H156.745ZM156.845 22.264H157.763V22.064H156.845V22.264ZM157.663 22.164V24H157.863V22.164H157.663ZM157.763 23.9H156.827V24.1H157.763V23.9ZM156.728 23.9933C156.633 25.4077 156.076 26.483 155.058 27.2314L155.177 27.3926C156.247 26.605 156.83 25.4723 156.927 24.0067L156.728 23.9933ZM155.058 27.2315C154.214 27.8527 153.174 28.166 151.931 28.166V28.366C153.209 28.366 154.293 28.0433 155.177 27.3925L155.058 27.2315ZM151.931 28.166C151.717 28.166 151.485 28.16 151.234 28.1481L151.225 28.3479C151.478 28.36 151.714 28.366 151.931 28.366V28.166ZM151.307 28.1854L150.425 27.0874L150.27 27.2126L151.152 28.3106L151.307 28.1854ZM150.447 27.15V26.376H150.247V27.15H150.447ZM150.332 26.4748C150.721 26.5355 151.098 26.566 151.463 26.566V26.366C151.109 26.366 150.742 26.3365 150.363 26.2772L150.332 26.4748ZM151.463 26.566C152.54 26.566 153.366 26.3045 153.923 25.7637C154.48 25.2225 154.749 24.4182 154.749 23.37H154.549C154.549 24.3858 154.288 25.1295 153.783 25.6203C153.278 26.1115 152.511 26.366 151.463 26.366V26.566ZM154.749 23.37V15.72H154.549V23.37H154.749ZM154.649 15.82H156.845V15.62H154.649V15.82ZM160.976 22.164H161.076C161.076 22.1088 161.031 22.064 160.976 22.064V22.164ZM160.976 24V24.1C161.031 24.1 161.076 24.0552 161.076 24H160.976ZM157.646 24H157.546C157.546 24.0552 157.591 24.1 157.646 24.1V24ZM157.646 22.164V22.064C157.591 22.064 157.546 22.1088 157.546 22.164H157.646ZM160.876 22.164V24H161.076V22.164H160.876ZM160.976 23.9H157.646V24.1H160.976V23.9ZM157.746 24V22.164H157.546V24H157.746ZM157.646 22.264H160.976V22.064H157.646V22.264ZM166.263 15.72H166.363C166.363 15.6648 166.319 15.62 166.263 15.62V15.72ZM165.795 23.316L165.871 23.3816L165.874 23.3779L165.795 23.316ZM160.845 24H160.745C160.745 24.0552 160.79 24.1 160.845 24.1V24ZM160.845 22.164V22.064C160.79 22.064 160.745 22.1088 160.745 22.164H160.845ZM164.085 15.72V15.62C164.03 15.62 163.985 15.6648 163.985 15.72H164.085ZM163.149 25.656L163.079 25.7267L163.149 25.656ZM161.511 27.312L161.441 27.3827L161.511 27.312ZM165.885 25.656L165.813 25.7248L165.815 25.7267L165.885 25.656ZM165.885 27.312L165.815 27.2413L165.813 27.2432L165.885 27.312ZM164.247 27.312L164.177 27.3827L164.247 27.312ZM164.247 25.656L164.177 25.5853L164.247 25.656ZM166.163 15.72V22.02H166.363V15.72H166.163ZM166.163 22.02C166.163 22.4638 166.016 22.8743 165.717 23.2541L165.874 23.3779C166.199 22.9657 166.363 22.5122 166.363 22.02H166.163ZM165.72 23.2504C165.342 23.6852 164.878 23.9 164.319 23.9V24.1C164.937 24.1 165.457 23.8588 165.871 23.3816L165.72 23.2504ZM164.319 23.9H160.845V24.1H164.319V23.9ZM160.945 24V22.164H160.745V24H160.945ZM160.845 22.264H163.617V22.064H160.845V22.264ZM163.617 22.264C163.777 22.264 163.916 22.2049 164.03 22.0907L163.889 21.9493C163.811 22.0271 163.722 22.064 163.617 22.064V22.264ZM164.03 22.0907C164.133 21.9877 164.185 21.8602 164.185 21.714H163.985C163.985 21.8078 163.954 21.8843 163.889 21.9493L164.03 22.0907ZM164.185 21.714V15.72H163.985V21.714H164.185ZM164.085 15.82H166.263V15.62H164.085V15.82ZM162.321 25.414C162.619 25.414 162.87 25.5176 163.079 25.7267L163.22 25.5853C162.973 25.3384 162.672 25.214 162.321 25.214V25.414ZM163.079 25.7267C163.288 25.9359 163.391 26.1864 163.391 26.484H163.591C163.591 26.1336 163.467 25.8321 163.22 25.5853L163.079 25.7267ZM163.391 26.484C163.391 26.7816 163.288 27.0321 163.079 27.2413L163.22 27.3827C163.467 27.1359 163.591 26.8344 163.591 26.484H163.391ZM163.079 27.2413C162.87 27.4504 162.619 27.554 162.321 27.554V27.754C162.672 27.754 162.973 27.6296 163.22 27.3827L163.079 27.2413ZM162.321 27.554C162.037 27.554 161.792 27.4512 161.582 27.2413L161.441 27.3827C161.687 27.6288 161.982 27.754 162.321 27.754V27.554ZM161.582 27.2413C161.373 27.0321 161.269 26.7816 161.269 26.484H161.069C161.069 26.8344 161.194 27.1359 161.441 27.3827L161.582 27.2413ZM161.269 26.484C161.269 26.1864 161.373 25.9359 161.582 25.7267L161.441 25.5853C161.194 25.8321 161.069 26.1336 161.069 26.484H161.269ZM161.582 25.7267C161.792 25.5168 162.037 25.414 162.321 25.414V25.214C161.982 25.214 161.687 25.3392 161.441 25.5853L161.582 25.7267ZM165.075 25.414C165.373 25.414 165.616 25.5174 165.813 25.7248L165.958 25.5872C165.722 25.3386 165.426 25.214 165.075 25.214V25.414ZM165.815 25.7267C166.024 25.9359 166.127 26.1864 166.127 26.484H166.327C166.327 26.1336 166.203 25.8321 165.956 25.5853L165.815 25.7267ZM166.127 26.484C166.127 26.7816 166.024 27.0321 165.815 27.2413L165.956 27.3827C166.203 27.1359 166.327 26.8344 166.327 26.484H166.127ZM165.813 27.2432C165.616 27.4506 165.373 27.554 165.075 27.554V27.754C165.426 27.754 165.722 27.6294 165.958 27.3808L165.813 27.2432ZM165.075 27.554C164.778 27.554 164.527 27.4504 164.318 27.2413L164.177 27.3827C164.424 27.6296 164.725 27.754 165.075 27.754V27.554ZM164.318 27.2413C164.109 27.0321 164.005 26.7816 164.005 26.484H163.805C163.805 26.8344 163.93 27.1359 164.177 27.3827L164.318 27.2413ZM164.005 26.484C164.005 26.1864 164.109 25.9359 164.318 25.7267L164.177 25.5853C163.93 25.8321 163.805 26.1336 163.805 26.484H164.005ZM164.318 25.7267C164.527 25.5176 164.778 25.414 165.075 25.414V25.214C164.725 25.214 164.424 25.3384 164.177 25.5853L164.318 25.7267ZM173.808 15.72H173.908C173.908 15.6648 173.864 15.62 173.808 15.62V15.72ZM173.808 22.164H173.708C173.708 22.2192 173.753 22.264 173.808 22.264V22.164ZM174.726 22.164H174.826C174.826 22.1088 174.782 22.064 174.726 22.064V22.164ZM174.726 24V24.1C174.782 24.1 174.826 24.0552 174.826 24H174.726ZM173.79 24V23.9C173.738 23.9 173.694 23.9408 173.691 23.9933L173.79 24ZM172.08 27.312L172.021 27.2314L172.021 27.2315L172.08 27.312ZM168.192 28.248L168.114 28.3106C168.132 28.333 168.159 28.3465 168.188 28.3479L168.192 28.248ZM167.31 27.15H167.21C167.21 27.1728 167.218 27.1949 167.232 27.2126L167.31 27.15ZM167.31 26.376L167.326 26.2772C167.297 26.2727 167.268 26.281 167.245 26.3C167.223 26.319 167.21 26.3468 167.21 26.376H167.31ZM171.612 15.72V15.62C171.557 15.62 171.512 15.6648 171.512 15.72H171.612ZM173.708 15.72V22.164H173.908V15.72H173.708ZM173.808 22.264H174.726V22.064H173.808V22.264ZM174.626 22.164V24H174.826V22.164H174.626ZM174.726 23.9H173.79V24.1H174.726V23.9ZM173.691 23.9933C173.596 25.4077 173.038 26.483 172.021 27.2314L172.14 27.3926C173.21 26.605 173.792 25.4723 173.89 24.0067L173.691 23.9933ZM172.021 27.2315C171.177 27.8527 170.137 28.166 168.894 28.166V28.366C170.172 28.366 171.256 28.0433 172.14 27.3925L172.021 27.2315ZM168.894 28.166C168.68 28.166 168.448 28.16 168.197 28.1481L168.188 28.3479C168.441 28.36 168.677 28.366 168.894 28.366V28.166ZM168.27 28.1854L167.388 27.0874L167.232 27.2126L168.114 28.3106L168.27 28.1854ZM167.41 27.15V26.376H167.21V27.15H167.41ZM167.295 26.4748C167.684 26.5355 168.061 26.566 168.426 26.566V26.366C168.072 26.366 167.705 26.3365 167.326 26.2772L167.295 26.4748ZM168.426 26.566C169.503 26.566 170.329 26.3045 170.886 25.7637C171.443 25.2225 171.712 24.4182 171.712 23.37H171.512C171.512 24.3858 171.251 25.1295 170.746 25.6203C170.241 26.1115 169.474 26.366 168.426 26.366V26.566ZM171.712 23.37V15.72H171.512V23.37H171.712ZM171.612 15.82H173.808V15.62H171.612V15.82ZM177.939 22.164H178.039C178.039 22.1088 177.994 22.064 177.939 22.064V22.164ZM177.939 24V24.1C177.994 24.1 178.039 24.0552 178.039 24H177.939ZM174.609 24H174.509C174.509 24.0552 174.554 24.1 174.609 24.1V24ZM174.609 22.164V22.064C174.554 22.064 174.509 22.1088 174.509 22.164H174.609ZM177.839 22.164V24H178.039V22.164H177.839ZM177.939 23.9H174.609V24.1H177.939V23.9ZM174.709 24V22.164H174.509V24H174.709ZM174.609 22.264H177.939V22.064H174.609V22.264ZM184.054 13.74L183.984 13.6693L184.054 13.74ZM182.416 13.74L182.487 13.6693L182.416 13.74ZM182.416 12.102L182.487 12.1727L182.416 12.102ZM186.79 12.102L186.72 12.1727L186.79 12.102ZM186.79 13.74L186.72 13.6693L186.79 13.74ZM185.134 13.758L185.062 13.8269L185.066 13.8306L185.134 13.758ZM185.134 12.102L185.064 12.0313L185.062 12.0332L185.134 12.102ZM181.39 22.164V22.264C181.428 22.264 181.463 22.2426 181.48 22.2087C181.497 22.1748 181.493 22.1343 181.47 22.104L181.39 22.164ZM181.282 17.16L181.364 17.2172L181.365 17.2165L181.282 17.16ZM187.276 16.512L187.209 16.5857L187.209 16.5858L187.276 16.512ZM187.744 22.164L187.663 22.1059C187.641 22.1364 187.638 22.1765 187.655 22.2098C187.673 22.2431 187.707 22.264 187.744 22.264V22.164ZM188.986 22.164H189.086C189.086 22.1088 189.042 22.064 188.986 22.064V22.164ZM188.986 24V24.1C189.042 24.1 189.086 24.0552 189.086 24H188.986ZM184.594 23.766L184.635 23.6747C184.622 23.669 184.608 23.666 184.594 23.666V23.766ZM184.504 23.766V23.666C184.49 23.666 184.475 23.6692 184.462 23.6753L184.504 23.766ZM177.808 24H177.708C177.708 24.0552 177.753 24.1 177.808 24.1V24ZM177.808 22.164V22.064C177.753 22.064 177.708 22.1088 177.708 22.164H177.808ZM184.558 22.146L184.547 22.2454C184.555 22.2462 184.562 22.2462 184.569 22.2454L184.558 22.146ZM185.854 21.408L185.775 21.3477L185.774 21.348L185.854 21.408ZM185.872 17.988L185.952 17.928L185.872 17.988ZM183.244 17.988L183.165 17.9266L183.164 17.928L183.244 17.988ZM183.244 21.408L183.163 21.467L183.165 21.4694L183.244 21.408ZM183.226 11.86C183.524 11.86 183.774 11.9636 183.984 12.1727L184.125 12.0313C183.878 11.7844 183.577 11.66 183.226 11.66V11.86ZM183.984 12.1727C184.193 12.3819 184.296 12.6324 184.296 12.93H184.496C184.496 12.5796 184.372 12.2781 184.125 12.0313L183.984 12.1727ZM184.296 12.93C184.296 13.2145 184.194 13.4593 183.984 13.6693L184.125 13.8107C184.371 13.5647 184.496 13.2695 184.496 12.93H184.296ZM183.984 13.6693C183.774 13.8784 183.524 13.982 183.226 13.982V14.182C183.577 14.182 183.878 14.0576 184.125 13.8107L183.984 13.6693ZM183.226 13.982C182.942 13.982 182.697 13.8792 182.487 13.6693L182.346 13.8107C182.592 14.0568 182.887 14.182 183.226 14.182V13.982ZM182.487 13.6693C182.277 13.4593 182.174 13.2145 182.174 12.93H181.974C181.974 13.2695 182.1 13.5647 182.346 13.8107L182.487 13.6693ZM182.174 12.93C182.174 12.6324 182.278 12.3819 182.487 12.1727L182.346 12.0313C182.099 12.2781 181.974 12.5796 181.974 12.93H182.174ZM182.487 12.1727C182.697 11.9628 182.942 11.86 183.226 11.86V11.66C182.887 11.66 182.592 11.7852 182.346 12.0313L182.487 12.1727ZM185.962 11.86C186.26 11.86 186.51 11.9636 186.72 12.1727L186.861 12.0313C186.614 11.7844 186.313 11.66 185.962 11.66V11.86ZM186.72 12.1727C186.929 12.3819 187.032 12.6324 187.032 12.93H187.232C187.232 12.5796 187.108 12.2781 186.861 12.0313L186.72 12.1727ZM187.032 12.93C187.032 13.2145 186.93 13.4593 186.72 13.6693L186.861 13.8107C187.107 13.5647 187.232 13.2695 187.232 12.93H187.032ZM186.72 13.6693C186.51 13.8784 186.26 13.982 185.962 13.982V14.182C186.313 14.182 186.614 14.0576 186.861 13.8107L186.72 13.6693ZM185.962 13.982C185.663 13.982 185.412 13.8832 185.203 13.6854L185.066 13.8306C185.313 14.0648 185.614 14.182 185.962 14.182V13.982ZM185.207 13.6892C185.009 13.4804 184.91 13.2293 184.91 12.93H184.71C184.71 13.2787 184.827 13.5796 185.062 13.8268L185.207 13.6892ZM184.91 12.93C184.91 12.6307 185.009 12.3796 185.207 12.1708L185.062 12.0332C184.827 12.2804 184.71 12.5813 184.71 12.93H184.91ZM185.205 12.1727C185.414 11.9636 185.665 11.86 185.962 11.86V11.66C185.612 11.66 185.31 11.7844 185.064 12.0313L185.205 12.1727ZM181.47 22.104C180.945 21.4036 180.68 20.5554 180.68 19.554H180.48C180.48 20.5926 180.756 21.4844 181.31 22.224L181.47 22.104ZM180.68 19.554C180.68 18.6477 180.91 17.8703 181.364 17.2171L181.2 17.1028C180.719 17.7937 180.48 18.6123 180.48 19.554H180.68ZM181.365 17.2165C182.101 16.1418 183.161 15.604 184.558 15.604V15.404C183.1 15.404 181.976 15.9702 181.2 17.1035L181.365 17.2165ZM184.558 15.604C185.616 15.604 186.497 15.9321 187.209 16.5857L187.344 16.4383C186.592 15.7479 185.661 15.404 184.558 15.404V15.604ZM187.209 16.5858C188.038 17.3452 188.454 18.3315 188.454 19.554H188.654C188.654 18.2805 188.218 17.2388 187.344 16.4382L187.209 16.5858ZM188.454 19.554C188.454 20.5185 188.19 21.3679 187.663 22.1059L187.826 22.2221C188.379 21.4481 188.654 20.5575 188.654 19.554H188.454ZM187.744 22.264H188.986V22.064H187.744V22.264ZM188.886 22.164V24H189.086V22.164H188.886ZM188.986 23.9H186.286V24.1H188.986V23.9ZM186.286 23.9C185.509 23.9 184.963 23.8216 184.635 23.6747L184.553 23.8573C184.922 24.0224 185.504 24.1 186.286 24.1V23.9ZM184.594 23.666H184.504V23.866H184.594V23.666ZM184.462 23.6753C184.147 23.8214 183.603 23.9 182.812 23.9V24.1C183.606 24.1 184.189 24.0226 184.546 23.8567L184.462 23.6753ZM182.812 23.9H177.808V24.1H182.812V23.9ZM177.908 24V22.164H177.708V24H177.908ZM177.808 22.264H181.39V22.064H177.808V22.264ZM184.569 22.2454C185.137 22.1824 185.594 21.9222 185.934 21.468L185.774 21.348C185.467 21.7578 185.06 21.9896 184.547 22.0466L184.569 22.2454ZM185.934 21.4683C186.286 21.0033 186.458 20.4167 186.458 19.716H186.258C186.258 20.3833 186.095 20.9247 185.775 21.3477L185.934 21.4683ZM186.458 19.716C186.458 18.9815 186.293 18.3823 185.952 17.928L185.792 18.048C186.1 18.4577 186.258 19.0105 186.258 19.716H186.458ZM185.952 17.928C185.609 17.4702 185.141 17.24 184.558 17.24V17.44C185.08 17.44 185.488 17.6418 185.792 18.048L185.952 17.928ZM184.558 17.24C183.987 17.24 183.52 17.4706 183.165 17.9266L183.323 18.0494C183.641 17.6414 184.05 17.44 184.558 17.44V17.24ZM183.164 17.928C182.824 18.3823 182.658 18.9815 182.658 19.716H182.858C182.858 19.0105 183.017 18.4577 183.324 18.048L183.164 17.928ZM182.658 19.716C182.658 20.4159 182.824 21.002 183.164 21.4669L183.325 21.3491C183.016 20.926 182.858 20.3841 182.858 19.716H182.658ZM183.165 21.4694C183.518 21.9225 183.98 22.1824 184.547 22.2454L184.569 22.0466C184.056 21.9896 183.643 21.7575 183.323 21.3466L183.165 21.4694ZM192.195 22.164H192.295C192.295 22.1088 192.25 22.064 192.195 22.064V22.164ZM192.195 24V24.1C192.25 24.1 192.295 24.0552 192.295 24H192.195ZM188.865 24H188.765C188.765 24.0552 188.81 24.1 188.865 24.1V24ZM188.865 22.164V22.064C188.81 22.064 188.765 22.1088 188.765 22.164H188.865ZM192.095 22.164V24H192.295V22.164H192.095ZM192.195 23.9H188.865V24.1H192.195V23.9ZM188.965 24V22.164H188.765V24H188.965ZM188.865 22.264H192.195V22.064H188.865V22.264ZM194.62 12.102L194.691 12.0313L194.62 12.102ZM194.62 13.74L194.549 13.6693L194.62 13.74ZM192.964 13.74L193.035 13.6693L192.964 13.74ZM192.964 12.102L193.035 12.1727L192.964 12.102ZM197.356 13.74L197.285 13.6693L197.356 13.74ZM195.718 13.74L195.789 13.6693L195.718 13.74ZM195.718 12.102L195.647 12.0313L195.718 12.102ZM197.464 15.72H197.564C197.564 15.6648 197.519 15.62 197.464 15.62V15.72ZM196.996 23.316L197.072 23.3816L197.075 23.3779L196.996 23.316ZM192.046 24H191.946C191.946 24.0552 191.991 24.1 192.046 24.1V24ZM192.046 22.164V22.064C191.991 22.064 191.946 22.1088 191.946 22.164H192.046ZM195.286 15.72V15.62C195.231 15.62 195.186 15.6648 195.186 15.72H195.286ZM193.792 11.86C194.09 11.86 194.34 11.9636 194.549 12.1727L194.691 12.0313C194.444 11.7844 194.143 11.66 193.792 11.66V11.86ZM194.549 12.1727C194.759 12.3819 194.862 12.6324 194.862 12.93H195.062C195.062 12.5796 194.938 12.2781 194.691 12.0313L194.549 12.1727ZM194.862 12.93C194.862 13.2145 194.759 13.4593 194.549 13.6693L194.691 13.8107C194.937 13.5647 195.062 13.2695 195.062 12.93H194.862ZM194.549 13.6693C194.34 13.8784 194.09 13.982 193.792 13.982V14.182C194.143 14.182 194.444 14.0576 194.691 13.8107L194.549 13.6693ZM193.792 13.982C193.495 13.982 193.244 13.8784 193.035 13.6693L192.893 13.8107C193.14 14.0576 193.442 14.182 193.792 14.182V13.982ZM193.035 13.6693C192.825 13.4593 192.722 13.2145 192.722 12.93H192.522C192.522 13.2695 192.647 13.5647 192.893 13.8107L193.035 13.6693ZM192.722 12.93C192.722 12.6324 192.826 12.3819 193.035 12.1727L192.893 12.0313C192.647 12.2781 192.522 12.5796 192.522 12.93H192.722ZM193.035 12.1727C193.244 11.9636 193.495 11.86 193.792 11.86V11.66C193.442 11.66 193.14 11.7844 192.893 12.0313L193.035 12.1727ZM196.528 11.86C196.826 11.86 197.076 11.9636 197.285 12.1727L197.427 12.0313C197.18 11.7844 196.879 11.66 196.528 11.66V11.86ZM197.285 12.1727C197.495 12.3819 197.598 12.6324 197.598 12.93H197.798C197.798 12.5796 197.674 12.2781 197.427 12.0313L197.285 12.1727ZM197.598 12.93C197.598 13.2145 197.495 13.4593 197.285 13.6693L197.427 13.8107C197.673 13.5647 197.798 13.2695 197.798 12.93H197.598ZM197.285 13.6693C197.076 13.8784 196.826 13.982 196.528 13.982V14.182C196.879 14.182 197.18 14.0576 197.427 13.8107L197.285 13.6693ZM196.528 13.982C196.244 13.982 195.999 13.8792 195.789 13.6693L195.647 13.8107C195.894 14.0568 196.189 14.182 196.528 14.182V13.982ZM195.789 13.6693C195.579 13.4593 195.476 13.2145 195.476 12.93H195.276C195.276 13.2695 195.401 13.5647 195.647 13.8107L195.789 13.6693ZM195.476 12.93C195.476 12.6324 195.58 12.3819 195.789 12.1727L195.647 12.0313C195.401 12.2781 195.276 12.5796 195.276 12.93H195.476ZM195.789 12.1727C195.999 11.9628 196.244 11.86 196.528 11.86V11.66C196.189 11.66 195.894 11.7852 195.647 12.0313L195.789 12.1727ZM197.364 15.72V22.02H197.564V15.72H197.364ZM197.364 22.02C197.364 22.4638 197.217 22.8743 196.918 23.2541L197.075 23.3779C197.399 22.9657 197.564 22.5122 197.564 22.02H197.364ZM196.921 23.2504C196.543 23.6852 196.078 23.9 195.52 23.9V24.1C196.138 24.1 196.657 23.8588 197.072 23.3816L196.921 23.2504ZM195.52 23.9H192.046V24.1H195.52V23.9ZM192.146 24V22.164H191.946V24H192.146ZM192.046 22.264H194.818V22.064H192.046V22.264ZM194.818 22.264C194.978 22.264 195.117 22.2049 195.231 22.0907L195.089 21.9493C195.012 22.0271 194.923 22.064 194.818 22.064V22.264ZM195.231 22.0907C195.334 21.9877 195.386 21.8602 195.386 21.714H195.186C195.186 21.8078 195.154 21.8843 195.089 21.9493L195.231 22.0907ZM195.386 21.714V15.72H195.186V21.714H195.386ZM195.286 15.82H197.464V15.62H195.286V15.82Z" fill="#272727" mask="url(#path-5-outside-1_6746_4156)"/>
<defs>
<linearGradient id="paint0_linear_6746_4156" x1="398.079" y1="-9.08256" x2="511.092" y2="119.498" gradientUnits="userSpaceOnUse">
<stop stop-color="#3D8CD9"/>
<stop offset="1" stop-color="#00478D"/>
<stop offset="1" stop-color="#52A9FF" stop-opacity="0.64"/>
<stop offset="1" stop-color="#4CA0F3"/>
</linearGradient>
<linearGradient id="paint1_linear_6746_4156" x1="492.395" y1="34.0001" x2="807.388" y2="33.9998" gradientUnits="userSpaceOnUse">
<stop stop-color="#F0BE07"/>
<stop offset="1" stop-color="#DFB109"/>
</linearGradient>
</defs>
</svg>
