<svg width="1400" height="72" viewBox="0 0 1400 72" fill="none" xmlns="http://www.w3.org/2000/svg">
	<path d="M164.95 19C165.85 19 166.617 19.3167 167.25 19.95C167.883 20.5833 168.2 21.35 168.2 22.25C168.2 23.1167 167.883 23.8667 167.25 24.5C166.617 25.1333 165.85 25.45 164.95 25.45C164.05 25.45 163.283 25.1333 162.65 24.5C162.017 23.8667 161.7 23.1167 161.7 22.25C161.7 21.35 162.017 20.5833 162.65 19.95C163.283 19.3167 164.05 19 164.95 19ZM155.55 47.9C153.983 45.8 153.2 43.3833 153.2 40.65C153.2 37.0167 154.467 34.15 157 32.05C159.133 30.2833 161.783 29.4 164.95 29.4C167.383 29.4 169.467 30 171.2 31.2C173.7 32.8333 174.95 35.3167 174.95 38.65V47.55C174.95 49.1167 174.383 50.4333 173.25 51.5C172.15 52.5 170.917 53 169.55 53H139.25C137.05 53 135.117 52.25 133.45 50.75C131.483 49.0167 130.5 46.7667 130.5 44V36.1L133.6 33.6H136.6V44C136.6 45.0667 136.967 45.9667 137.7 46.7C138.4 47.5 139.317 47.9 140.45 47.9H155.55ZM168.85 38.65C168.85 37.4167 168.483 36.4167 167.75 35.65C167.017 34.8833 166.067 34.5 164.9 34.5C163.133 34.5 161.75 35.0833 160.75 36.25C159.75 37.4167 159.25 39.0333 159.25 41.1C159.25 43.1667 159.833 44.8167 161 46.05C162.2 47.2833 163.8 47.9 165.8 47.9H167.6C168.433 47.9 168.85 47.4833 168.85 46.65V38.65ZM195.984 52.8C194.55 53.2 193.15 53.4 191.784 53.4C188.25 53.4 185.384 52.0333 183.184 49.3C181.384 47 180.484 44.2833 180.484 41.15C180.484 37.7167 181.5 34.9333 183.534 32.8C185.634 30.5333 188.484 29.4 192.084 29.4C194.75 29.4 196.984 30.0833 198.784 31.45C201.05 33.0833 202.184 35.4833 202.184 38.65V51.8C202.184 56.1 200.817 59.4 198.084 61.7C196.517 63.0333 194.567 63.9667 192.234 64.5C191.067 64.7667 189.767 64.9 188.334 64.9C187.967 64.9 187.384 64.8667 186.584 64.8L184.134 61.75V59.6C185.2 59.7667 186.25 59.85 187.284 59.85C192.65 59.85 195.55 57.5 195.984 52.8ZM196.084 38.65C196.084 37.2167 195.6 36.1167 194.634 35.35C193.967 34.7833 193.117 34.5 192.084 34.5C190.35 34.5 188.984 35.1 187.984 36.3C187.017 37.5 186.534 39.15 186.534 41.25C186.534 43.4167 187.084 45.1333 188.184 46.4C189.317 47.6333 190.85 48.25 192.784 48.25C193.85 48.25 194.95 48.05 196.084 47.65V38.65ZM222.38 30V47.9H224.93V53H222.33C222.063 57 220.48 60.0667 217.58 62.2C215.18 63.9667 212.23 64.85 208.73 64.85C208.13 64.85 207.48 64.8333 206.78 64.8L204.33 61.75V59.6C205.396 59.7667 206.43 59.85 207.43 59.85C213.33 59.85 216.28 56.9833 216.28 51.25V30H222.38ZM239.654 38.4C244.121 32.3667 249.637 29.35 256.204 29.35C260.204 29.35 263.504 30.6 266.104 33.1C268.471 35.3667 269.654 38.2333 269.654 41.7V46.3C269.654 46.5 269.637 46.7833 269.604 47.15C269.604 47.4833 269.604 47.7333 269.604 47.9H271.254V53H270.254L268.604 50.95H268.454C267.354 52.3167 265.937 53 264.204 53H224.604V47.9H233.604L233.554 30H239.654V38.4ZM263.554 42C263.521 39.6 262.604 37.7 260.804 36.3C259.271 35.1667 257.421 34.6 255.254 34.6C251.921 34.6 248.837 35.9833 246.004 38.75C243.404 40.9167 241.287 43.9667 239.654 47.9H262.304C263.137 47.9 263.554 47.4833 263.554 46.65V42ZM279.843 38.65C279.843 35.4833 280.943 33.0833 283.143 31.45C284.876 30.1167 287.243 29.45 290.243 29.45C293.176 29.45 295.66 30.3167 297.693 32.05C300.26 34.25 301.543 37.3667 301.543 41.4C301.543 45.2 300.526 48.35 298.493 50.85C296.526 53.2833 293.976 54.5 290.843 54.5C288.076 54.5 285.893 53.4667 284.293 51.4C283.226 52.4667 281.926 53 280.393 53H270.843V47.9H278.543C278.91 47.9 279.226 47.7667 279.493 47.5C279.726 47.2667 279.843 46.9833 279.843 46.65V38.65ZM285.893 47.35C287.126 48.6833 288.543 49.35 290.143 49.35C291.71 49.35 292.993 48.6667 293.993 47.3C294.993 45.9 295.493 44.1 295.493 41.9C295.493 39.5 294.943 37.6167 293.843 36.25C292.843 35.0833 291.543 34.5 289.943 34.5C288.743 34.5 287.793 34.8833 287.093 35.65C286.293 36.3833 285.893 37.3833 285.893 38.65V47.35ZM320.085 29.7C321.218 29.5 322.535 29.4 324.035 29.4C327.868 29.4 330.968 30.6333 333.335 33.1C335.435 35.3333 336.485 38.1 336.485 41.4V46.2C336.485 46.9667 336.468 47.5333 336.435 47.9H337.735V53H337.085L335.435 50.95H335.285C335.018 51.25 334.735 51.5333 334.435 51.8C333.435 52.6 332.318 53 331.085 53H315.035V47.9H329.135C329.968 47.9 330.385 47.4833 330.385 46.65V42C330.385 39.7 329.685 37.85 328.285 36.45C326.985 35.15 325.102 34.45 322.635 34.35C321.502 34.35 320.652 34.4167 320.085 34.55V29.7ZM349.397 19C350.297 19 351.064 19.3167 351.697 19.95C352.33 20.5833 352.647 21.35 352.647 22.25C352.647 23.1167 352.33 23.8667 351.697 24.5C351.064 25.1333 350.297 25.45 349.397 25.45C348.53 25.45 347.78 25.1333 347.147 24.5C346.514 23.8667 346.197 23.1167 346.197 22.25C346.197 21.35 346.514 20.5833 347.147 19.95C347.78 19.3167 348.53 19 349.397 19ZM352.447 30V47.15V47.9H354.997V53H353.247L351.397 50.95H351.297C350.164 52.3167 348.747 53 347.047 53H337.397V47.9H344.947C345.414 47.9 345.747 47.7667 345.947 47.5C346.247 47.2333 346.397 46.9 346.397 46.5V30H352.447ZM407.683 30V47.5C407.683 49 407.15 50.3 406.083 51.4C405.05 52.4667 403.783 53 402.283 53H391.783L389.933 50.95H389.783C388.683 52.3167 387.283 53 385.583 53H375.083L373.183 50.95H373.033C371.933 52.3167 370.533 53 368.833 53H354.633V47.9H366.883C367.717 47.9 368.133 47.4833 368.133 46.65V35.75H374.233V45.75C374.233 46.7167 374.217 47.4333 374.183 47.9H383.633C384.467 47.9 384.883 47.4833 384.883 46.65V32.85H390.983V46.2C390.983 46.4 390.967 46.7 390.933 47.1C390.933 47.4667 390.933 47.7333 390.933 47.9H400.333C401.167 47.9 401.583 47.4833 401.583 46.65V30H407.683Z" fill="#2E2E2E"/>
	<path d="M0 66H84C85.6569 66 87 67.3431 87 69C87 70.6569 85.6569 72 84 72H0V66Z" fill="url(#paint0_linear_13136_4691)"/>
	<path d="M0 0H82C84.7614 0 87 2.23858 87 5V59C87 61.7614 84.7614 64 82 64H0V0Z" fill="#3D8CD9"/>
	<path d="M452 5C452 2.23858 454.239 0 457 0H1400V64H457C454.239 64 452 61.7614 452 59V5Z" fill="url(#paint1_linear_13136_4691)"/>
	<path d="M452 69C452 67.3431 453.343 66 455 66H1399.3V72H455C453.343 72 452 70.6569 452 69Z" fill="url(#paint2_linear_13136_4691)"/>
	<defs>
		<linearGradient id="paint0_linear_13136_4691" x1="43.5" y1="66" x2="43.5" y2="72" gradientUnits="userSpaceOnUse">
			<stop stop-color="#FFDD63"/>
			<stop offset="1" stop-color="#E0A100"/>
		</linearGradient>
		<linearGradient id="paint1_linear_13136_4691" x1="725.322" y1="-19.3761" x2="962.247" y2="169.265" gradientUnits="userSpaceOnUse">
			<stop stop-color="#3D8CD9"/>
			<stop offset="1" stop-color="#00478D"/>
			<stop offset="1" stop-color="#52A9FF" stop-opacity="0.64"/>
			<stop offset="1" stop-color="#4CA0F3"/>
		</linearGradient>
		<linearGradient id="paint2_linear_13136_4691" x1="925.648" y1="66" x2="925.648" y2="72" gradientUnits="userSpaceOnUse">
			<stop stop-color="#FFDD63"/>
			<stop offset="1" stop-color="#E0A100"/>
		</linearGradient>
	</defs>
</svg>
