<svg width="35" height="35" viewBox="0 0 35 35" fill="none" xmlns="http://www.w3.org/2000/svg">
	<path d="M19.2996 0C21.2683 0.00524988 22.2675 0.0157496 23.1302 0.0402491L23.4697 0.0524987C23.8617 0.0664984 24.2484 0.0839979 24.7157 0.104997C26.5776 0.192495 27.8481 0.486489 28.9628 0.918729C30.1178 1.36322 31.0908 1.9652 32.0638 2.93643C32.9536 3.81123 33.6421 4.86942 34.0815 6.03736C34.5137 7.15208 34.8077 8.42255 34.8952 10.2863C34.9162 10.7517 34.9337 11.1385 34.9477 11.5322L34.9582 11.8717C34.9844 12.7327 34.9949 13.7319 34.9984 15.7006L35.0002 17.0061V19.2985C35.0045 20.575 34.9911 21.8514 34.9599 23.1275L34.9494 23.467C34.9354 23.8607 34.9179 24.2474 34.8969 24.7129C34.8094 26.5766 34.512 27.8453 34.0815 28.9618C33.6434 30.1304 32.9547 31.1889 32.0638 32.0628C31.1887 32.9523 30.1306 33.6408 28.9628 34.0805C27.8481 34.5127 26.5776 34.8067 24.7157 34.8942C24.3004 34.9137 23.8851 34.9312 23.4697 34.9467L23.1302 34.9572C22.2675 34.9817 21.2683 34.9939 19.2996 34.9974L17.9941 34.9992H15.7034C14.4264 35.0036 13.1494 34.9902 11.8727 34.9589L11.5332 34.9484C11.1178 34.9327 10.7025 34.9146 10.2873 34.8942C8.42531 34.8067 7.15484 34.5127 6.03837 34.0805C4.87057 33.6419 3.8128 32.9532 2.93919 32.0628C2.04854 31.1883 1.35937 30.13 0.919738 28.9618C0.487498 27.8471 0.193505 26.5766 0.106007 24.7129C0.0865105 24.2977 0.0690108 23.8824 0.0535084 23.467L0.0447589 23.1275C0.0125107 21.8514 -0.00207385 20.575 0.00100973 19.2985V15.7006C-0.00387435 14.4242 0.00896005 13.1478 0.039509 11.8717L0.0517586 11.5322C0.0657583 11.1385 0.0832578 10.7517 0.104257 10.2863C0.191755 8.42255 0.485748 7.15383 0.917988 6.03736C1.35743 4.86822 2.04797 3.8097 2.94094 2.93643C3.81433 2.04653 4.8714 1.35795 6.03837 0.918729C7.15484 0.486489 8.42356 0.192495 10.2873 0.104997C10.7528 0.0839979 11.1412 0.0664984 11.5332 0.0524987L11.8727 0.0419989C13.1488 0.010907 14.4252 -0.00251066 15.7016 0.00174983L19.2996 0ZM17.5006 8.7498C15.18 8.7498 12.9545 9.67165 11.3136 11.3126C9.67266 12.9535 8.7508 15.179 8.7508 17.4996C8.7508 19.8202 9.67266 22.0457 11.3136 23.6866C12.9545 25.3275 15.18 26.2494 17.5006 26.2494C19.8212 26.2494 22.0467 25.3275 23.6876 23.6866C25.3285 22.0457 26.2504 19.8202 26.2504 17.4996C26.2504 15.179 25.3285 12.9535 23.6876 11.3126C22.0467 9.67165 19.8212 8.7498 17.5006 8.7498ZM17.5006 12.2497C18.19 12.2496 18.8727 12.3853 19.5097 12.649C20.1467 12.9127 20.7255 13.2993 21.2131 13.7867C21.7007 14.2742 22.0875 14.8528 22.3514 15.4897C22.6153 16.1266 22.7512 16.8093 22.7514 17.4987C22.7515 18.1881 22.6158 18.8708 22.3521 19.5078C22.0883 20.1448 21.7017 20.7236 21.2143 21.2112C20.7269 21.6988 20.1482 22.0856 19.5113 22.3495C18.8744 22.6134 18.1918 22.7494 17.5023 22.7495C16.11 22.7495 14.7747 22.1964 13.7901 21.2118C12.8056 20.2273 12.2525 18.8919 12.2525 17.4996C12.2525 16.1072 12.8056 14.7719 13.7901 13.7874C14.7747 12.8028 16.11 12.2497 17.5023 12.2497M26.6896 6.12486C26.1095 6.12486 25.5531 6.35532 25.1429 6.76555C24.7326 7.17577 24.5022 7.73216 24.5022 8.31231C24.5022 8.89245 24.7326 9.44884 25.1429 9.85907C25.5531 10.2693 26.1095 10.4998 26.6896 10.4998C27.2698 10.4998 27.8262 10.2693 28.2364 9.85907C28.6466 9.44884 28.8771 8.89245 28.8771 8.31231C28.8771 7.73216 28.6466 7.17577 28.2364 6.76555C27.8262 6.35532 27.2698 6.12486 26.6896 6.12486Z" fill="#2E2E2E"/>
</svg>
