<svg width="17" height="25" viewBox="0 0 17 30" fill="none" xmlns="http://www.w3.org/2000/svg">
<path opacity="0.3" d="M1.75 3.1875H14.25V24.4391H1.75V3.1875Z" fill="url(#paint0_linear_60_1789)"/>
<path d="M12.9808 0H3.09066C2.27097 0 1.48484 0.356205 0.905233 0.990254C0.325622 1.6243 0 2.48426 0 3.38094V26.3713C0 27.268 0.325622 28.1279 0.905233 28.762C1.48484 29.396 2.27097 29.7522 3.09066 29.7522H12.9808C13.8005 29.7522 14.5866 29.396 15.1662 28.762C15.7458 28.1279 16.0714 27.268 16.0714 26.3713V3.38094C16.0714 2.48426 15.7458 1.6243 15.1662 0.990254C14.5866 0.356205 13.8005 0 12.9808 0ZM8.03571 28.3999C7.00962 28.3999 6.18132 27.4938 6.18132 26.3713C6.18132 25.2488 7.00962 24.3427 8.03571 24.3427C9.06181 24.3427 9.89011 25.2488 9.89011 26.3713C9.89011 27.4938 9.06181 28.3999 8.03571 28.3999ZM13.5989 22.4904C13.5989 22.7665 13.375 22.9904 13.0989 22.9904H2.97253C2.69639 22.9904 2.47253 22.7665 2.47253 22.4904V4.55713C2.47253 4.28098 2.69639 4.05712 2.97253 4.05712H13.0989C13.375 4.05712 13.5989 4.28098 13.5989 4.55712V22.4904Z" fill="url(#paint1_linear_60_1789)"/>
<defs>
<linearGradient id="paint0_linear_60_1789" x1="8" y1="3.1875" x2="7.99963" y2="19.2264" gradientUnits="userSpaceOnUse">
<stop stop-color="#E6F4FF"/>
<stop offset="1" stop-color="#90C5FB"/>
</linearGradient>
<linearGradient id="paint1_linear_60_1789" x1="8.03571" y1="0" x2="8.03571" y2="29.7522" gradientUnits="userSpaceOnUse">
<stop stop-color="#3C8BD8"/>
<stop offset="1" stop-color="#00478D"/>
</linearGradient>
</defs>
</svg>
