<svg width="30" height="35" viewBox="0 0 30 31" fill="none" xmlns="http://www.w3.org/2000/svg">
<path d="M0 23.8379V28.3406C0 28.9255 0.192086 29.4864 0.534001 29.8999C0.875916 30.3135 1.33965 30.5459 1.82319 30.5459H28.1726C28.6562 30.5459 29.1199 30.3135 29.4618 29.8999C29.8038 29.4864 29.9958 28.9255 29.9958 28.3406V23.8379C29.9958 24.9133 28.9984 25.7837 27.6493 25.7837H2.34549C0.996322 25.7837 0 24.9133 0 23.8379Z" fill="url(#paint0_linear_60_1797)"/>
<path d="M8.20952 0.793945C3.46707 0.793945 0.35048 5.00994 0.166016 10.5232V11.0291H9.64663L10.3116 8.75893C10.3272 8.74193 10.3416 8.72326 10.3545 8.70315C10.4735 8.5397 10.6526 8.29323 11.9203 8.29323H18.1127C18.842 8.29323 19.6527 8.3983 20.3166 9.02357C20.6727 9.35695 20.6866 10.1755 20.5686 11.0291H29.8433V10.5232C29.5581 4.92821 26.5755 0.793945 21.7998 0.793945H8.20952Z" fill="url(#paint1_linear_60_1797)"/>
<path d="M8.20952 0.793945C3.46707 0.793945 0.35048 5.00994 0.166016 10.5232V11.0291H9.64663L10.3116 8.75893C10.3272 8.74193 10.3416 8.72326 10.3545 8.70315C10.4735 8.5397 10.6526 8.29323 11.9203 8.29323H18.1127C18.842 8.29323 19.6527 8.3983 20.3166 9.02357C20.6727 9.35695 20.6866 10.1755 20.5686 11.0291H29.8433V10.5232C29.5581 4.92821 26.5755 0.793945 21.7998 0.793945H8.20952Z" fill="url(#paint2_radial_60_1797)"/>
<path d="M8.20952 0.793945C3.46707 0.793945 0.35048 5.00994 0.166016 10.5232V11.0291H9.64663L10.3116 8.75893C10.3272 8.74193 10.3416 8.72326 10.3545 8.70315C10.4735 8.5397 10.6526 8.29323 11.9203 8.29323H18.1127C18.842 8.29323 19.6527 8.3983 20.3166 9.02357C20.6727 9.35695 20.6866 10.1755 20.5686 11.0291H29.8433V10.5232C29.5581 4.92821 26.5755 0.793945 21.7998 0.793945H8.20952Z" fill="url(#paint3_linear_60_1797)"/>
<path d="M0 10.3324C0 10.1947 0.0451966 10.0628 0.125647 9.96546C0.206098 9.86814 0.315212 9.81348 0.428987 9.81348H8.79852V12.6505H1.50253C1.10432 12.6505 0.722415 12.4592 0.440838 12.1186C0.159261 11.778 0.00107239 11.3161 0.00107239 10.8344V10.3324H0Z" fill="url(#paint4_linear_60_1797)"/>
<path d="M0 10.3324C0 10.1947 0.0451966 10.0628 0.125647 9.96546C0.206098 9.86814 0.315212 9.81348 0.428987 9.81348H8.79852V12.6505H1.50253C1.10432 12.6505 0.722415 12.4592 0.440838 12.1186C0.159261 11.778 0.00107239 11.3161 0.00107239 10.8344V10.3324H0Z" fill="url(#paint5_radial_60_1797)"/>
<path d="M0 10.3324C0 10.1947 0.0451966 10.0628 0.125647 9.96546C0.206098 9.86814 0.315212 9.81348 0.428987 9.81348H8.79852V12.6505H1.50253C1.10432 12.6505 0.722415 12.4592 0.440838 12.1186C0.159261 11.778 0.00107239 11.3161 0.00107239 10.8344V10.3324H0Z" fill="#044B92"/>
<path d="M30.0006 10.3324C30.0006 10.1947 29.9554 10.0628 29.8749 9.96546C29.7945 9.86814 29.6854 9.81348 29.5716 9.81348H21.2031V12.6505H28.4991C28.8973 12.6505 29.2792 12.4592 29.5608 12.1186C29.8424 11.778 30.0006 11.3161 30.0006 10.8344V10.3324Z" fill="#B42E50"/>
<path d="M30.0006 10.3324C30.0006 10.1947 29.9554 10.0628 29.8749 9.96546C29.7945 9.86814 29.6854 9.81348 29.5716 9.81348H21.2031V12.6505H28.4991C28.8973 12.6505 29.2792 12.4592 29.5608 12.1186C29.8424 11.778 30.0006 11.3161 30.0006 10.8344V10.3324Z" fill="url(#paint6_radial_60_1797)"/>
<path d="M30.0006 10.3324C30.0006 10.1947 29.9554 10.0628 29.8749 9.96546C29.7945 9.86814 29.6854 9.81348 29.5716 9.81348H21.2031V12.6505H28.4991C28.8973 12.6505 29.2792 12.4592 29.5608 12.1186C29.8424 11.778 30.0006 11.3161 30.0006 10.8344V10.3324Z" fill="#044B92"/>
<path d="M19.3044 6.98562C19.3044 6.72758 19.3892 6.48012 19.54 6.29766C19.6908 6.1152 19.8954 6.0127 20.1088 6.0127H20.6364C20.8497 6.0127 21.0543 6.1152 21.2052 6.29766C21.356 6.48012 21.4408 6.72758 21.4408 6.98562V9.08324C21.4408 9.25526 21.4973 9.42024 21.5978 9.54188C21.6984 9.66351 21.8348 9.73185 21.977 9.73185H22.1325C22.5323 9.73199 22.927 9.84029 23.2878 10.0488C23.6485 10.2573 23.9661 10.5608 24.2174 10.937L27.7919 16.4307C29.1797 18.5089 29.9958 21.0398 29.9958 23.7121V23.8392C29.9958 24.9146 28.9984 25.7851 27.6493 25.7851H2.34549C0.996322 25.7851 0 24.9146 0 23.8392V23.7108C0 21.0398 0.815075 18.5089 2.20285 16.4307L5.77738 10.937C6.02862 10.5608 6.34624 10.2573 6.70698 10.0488C7.06772 9.84029 7.46245 9.73199 7.86226 9.73185H8.01777C8.15998 9.73185 8.29638 9.66351 8.39694 9.54188C8.4975 9.42024 8.554 9.25526 8.554 9.08324V6.98562C8.554 6.72758 8.63874 6.48012 8.78959 6.29766C8.94043 6.1152 9.14502 6.0127 9.35835 6.0127H9.886C10.0993 6.0127 10.3039 6.1152 10.4548 6.29766C10.6056 6.48012 10.6904 6.72758 10.6904 6.98562V9.08324C10.6904 9.25526 10.7469 9.42024 10.8474 9.54188C10.948 9.66351 11.0844 9.73185 11.2266 9.73185H18.7682C18.9104 9.73185 19.0468 9.66351 19.1474 9.54188C19.2479 9.42024 19.3044 9.25526 19.3044 9.08324V6.98562Z" fill="url(#paint7_linear_60_1797)"/>
<path d="M15.6515 13.6553H14.3431C14.1061 13.6553 13.9141 13.8876 13.9141 14.1742V15.7568C13.9141 16.0434 14.1061 16.2757 14.3431 16.2757H15.6515C15.8884 16.2757 16.0804 16.0434 16.0804 15.7568V14.1742C16.0804 13.8876 15.8884 13.6553 15.6515 13.6553Z" fill="white"/>
<path d="M18.8683 13.6553H17.5598C17.3229 13.6553 17.1309 13.8876 17.1309 14.1742V15.7568C17.1309 16.0434 17.3229 16.2757 17.5598 16.2757H18.8683C19.1052 16.2757 19.2972 16.0434 19.2972 15.7568V14.1742C19.2972 13.8876 19.1052 13.6553 18.8683 13.6553Z" fill="white"/>
<path d="M12.4386 13.6553H11.1302C10.8932 13.6553 10.7012 13.8876 10.7012 14.1742V15.7568C10.7012 16.0434 10.8932 16.2757 11.1302 16.2757H12.4386C12.6755 16.2757 12.8676 16.0434 12.8676 15.7568V14.1742C12.8676 13.8876 12.6755 13.6553 12.4386 13.6553Z" fill="white"/>
<path d="M15.6515 17.5479H14.3431C14.1061 17.5479 13.9141 17.7802 13.9141 18.0667V19.6494C13.9141 19.9359 14.1061 20.1683 14.3431 20.1683H15.6515C15.8884 20.1683 16.0804 19.9359 16.0804 19.6494V18.0667C16.0804 17.7802 15.8884 17.5479 15.6515 17.5479Z" fill="white"/>
<path d="M15.6515 21.4346H14.3431C14.1061 21.4346 13.9141 21.6669 13.9141 21.9535V23.5361C13.9141 23.8227 14.1061 24.055 14.3431 24.055H15.6515C15.8884 24.055 16.0804 23.8227 16.0804 23.5361V21.9535C16.0804 21.6669 15.8884 21.4346 15.6515 21.4346Z" fill="white"/>
<path d="M18.8683 17.5479H17.5598C17.3229 17.5479 17.1309 17.7802 17.1309 18.0667V19.6494C17.1309 19.9359 17.3229 20.1683 17.5598 20.1683H18.8683C19.1052 20.1683 19.2972 19.9359 19.2972 19.6494V18.0667C19.2972 17.7802 19.1052 17.5479 18.8683 17.5479Z" fill="white"/>
<path d="M18.8683 21.4346H17.5598C17.3229 21.4346 17.1309 21.6669 17.1309 21.9535V23.5361C17.1309 23.8227 17.3229 24.055 17.5598 24.055H18.8683C19.1052 24.055 19.2972 23.8227 19.2972 23.5361V21.9535C19.2972 21.6669 19.1052 21.4346 18.8683 21.4346Z" fill="white"/>
<path d="M12.4386 17.5479H11.1302C10.8932 17.5479 10.7012 17.7802 10.7012 18.0667V19.6494C10.7012 19.9359 10.8932 20.1683 11.1302 20.1683H12.4386C12.6755 20.1683 12.8676 19.9359 12.8676 19.6494V18.0667C12.8676 17.7802 12.6755 17.5479 12.4386 17.5479Z" fill="white"/>
<path d="M12.4386 21.4346H11.1302C10.8932 21.4346 10.7012 21.6669 10.7012 21.9535V23.5361C10.7012 23.8227 10.8932 24.055 11.1302 24.055H12.4386C12.6755 24.055 12.8676 23.8227 12.8676 23.5361V21.9535C12.8676 21.6669 12.6755 21.4346 12.4386 21.4346Z" fill="white"/>
<defs>
<linearGradient id="paint0_linear_60_1797" x1="14.9979" y1="23.8379" x2="14.9979" y2="30.5459" gradientUnits="userSpaceOnUse">
<stop stop-color="#115AA2"/>
<stop offset="1" stop-color="#00478D"/>
</linearGradient>
<linearGradient id="paint1_linear_60_1797" x1="15.0047" y1="2.37527" x2="15.0047" y2="11.0291" gradientUnits="userSpaceOnUse">
<stop stop-color="#E6307B"/>
<stop offset="1" stop-color="#C02946"/>
</linearGradient>
<radialGradient id="paint2_radial_60_1797" cx="0" cy="0" r="1" gradientUnits="userSpaceOnUse" gradientTransform="translate(15.0047 8.69926) rotate(90) scale(3.24307 10.2974)">
<stop offset="0.209" stop-color="#881D3B"/>
<stop offset="1" stop-color="#BD0639" stop-opacity="0"/>
</radialGradient>
<linearGradient id="paint3_linear_60_1797" x1="15.0047" y1="0.793945" x2="15.0047" y2="11.0291" gradientUnits="userSpaceOnUse">
<stop stop-color="#2C7AC5"/>
<stop offset="1" stop-color="#044B92"/>
</linearGradient>
<linearGradient id="paint4_linear_60_1797" x1="6.38547" y1="11.7386" x2="0" y2="11.7386" gradientUnits="userSpaceOnUse">
<stop stop-color="#A11E45"/>
<stop offset="1" stop-color="#98484C"/>
</linearGradient>
<radialGradient id="paint5_radial_60_1797" cx="0" cy="0" r="1" gradientUnits="userSpaceOnUse" gradientTransform="translate(5.88248 9.10389) rotate(90) scale(2.12827 4.8261)">
<stop offset="0.257" stop-color="#C25D6C"/>
<stop offset="1" stop-color="#C25D6C" stop-opacity="0"/>
</radialGradient>
<radialGradient id="paint6_radial_60_1797" cx="0" cy="0" r="1" gradientUnits="userSpaceOnUse" gradientTransform="translate(27.5886 9.81348) rotate(90) scale(1.41884 4.39879)">
<stop offset="0.257" stop-color="#CE6272"/>
<stop offset="1" stop-color="#CE6272" stop-opacity="0"/>
</radialGradient>
<linearGradient id="paint7_linear_60_1797" x1="14.9974" y1="9.67218" x2="14.9974" y2="24.5086" gradientUnits="userSpaceOnUse">
<stop stop-color="#307EC9"/>
<stop offset="1" stop-color="#115AA2"/>
</linearGradient>
</defs>
</svg>
